<svg width="147" height="35" viewBox="0 0 147 35" fill="none" xmlns="http://www.w3.org/2000/svg">
<path d="M6.65786 14.709H13.3157C15.2576 14.709 16.6632 15.1529 17.5324 16.0406C18.4201 16.9098 18.8639 18.3154 18.8639 20.2572V21.0895C18.8639 23.0314 18.4201 24.4461 17.5324 25.3339C16.6632 26.2031 15.2576 26.6377 13.3157 26.6377H1.66447V7.21893H17.0608V11.1027H6.65786V14.709ZM13.8705 20.2572C13.8705 19.1476 13.3157 18.5928 12.2061 18.5928H6.65786V22.7539H12.2061C13.3157 22.7539 13.8705 22.1991 13.8705 21.0895V20.2572ZM38.2816 26.6377H33.2882V14.709L26.6304 26.6377H21.3596V7.21893H26.353V19.1476L33.0108 7.21893H38.2816V26.6377ZM40.5139 22.6152C45.2299 22.8926 48.5588 23.0314 50.5007 23.0314C50.9261 23.0314 51.259 22.9111 51.4994 22.6707C51.7583 22.4118 51.8878 22.0697 51.8878 21.6443V20.5347C51.8878 19.425 51.333 18.8702 50.2233 18.8702H43.5654V14.9864H49.6685C50.7781 14.9864 51.333 14.4316 51.333 13.322V12.7671C51.333 11.6575 50.7781 11.1027 49.6685 11.1027H40.7913V7.21893H51.0555C52.868 7.21893 54.1995 7.63504 55.0503 8.46727C55.901 9.28101 56.3264 10.5294 56.3264 12.2123C56.3264 13.322 56.0674 14.2282 55.5496 14.931C55.0503 15.6152 54.3845 16.0961 53.5522 16.3735C55.0503 16.7804 56.0674 17.779 56.6038 19.3695C56.7887 19.9428 56.8812 20.6086 56.8812 21.3669V21.6443C56.8812 23.4567 56.4558 24.7883 55.6051 25.639C54.7544 26.4897 53.4228 26.9151 51.6104 26.9151C48.5219 26.9151 44.823 26.7302 40.5139 26.3603V22.6152ZM76.2902 26.6377H71.2968V18.7315H64.3615V26.6377H59.3681V7.21893H64.3615V14.8477H71.2968V7.21893H76.2902V26.6377ZM95.0284 26.6377H79.6321V7.21893H95.0284V11.1027H84.6255V14.8477H92.8091V18.7315H84.6255V22.7539H95.0284V26.6377ZM112.221 26.3603C108.097 26.7302 104.676 26.9151 101.957 26.9151C100.145 26.9151 98.8132 26.4897 97.9625 25.639C97.1118 24.7883 96.6864 23.4567 96.6864 21.6443V12.7671C96.6864 10.8253 97.121 9.41972 97.9902 8.5505C98.8779 7.66278 100.293 7.21893 102.235 7.21893H112.221V11.1027H103.344C102.235 11.1027 101.68 11.6575 101.68 12.7671V21.6443C101.68 22.0697 101.8 22.4118 102.04 22.6707C102.299 22.9111 102.623 23.0314 103.011 23.0314C103.4 23.0314 103.825 23.0314 104.287 23.0314C104.75 23.0129 105.231 22.9944 105.73 22.9759C106.229 22.9574 106.729 22.9389 107.228 22.9204C107.746 22.9019 108.402 22.8649 109.198 22.8094C110.011 22.7539 111.019 22.6892 112.221 22.6152V26.3603Z" fill="white"/>
<path d="M123.613 7.94824H138.595V11.8336L132.214 27.375H126.665L133.324 11.8336H123.613V7.94824Z" fill="white"/>
<path d="M140.064 23.4897H128.33L129.994 19.6043L134.997 7.94824H140.305L135.404 19.6043L140.064 19.6043V15.4414H145.058V19.6043H147V23.4897H145.058V27.375H140.064V23.4897Z" fill="#FF6207"/>
<path d="M139.884 1.69006L141.685 9.16396L133.76 6.33656L139.884 1.69006Z" fill="#FF6207"/>
<path d="M135.864 5.78271L134.998 7.94812L139.886 8.50494L140.628 6.58701L135.864 5.78271Z" fill="#FF6207"/>
</svg>
