<svg width="454" height="494" viewBox="0 0 454 494" fill="none" xmlns="http://www.w3.org/2000/svg">
<path d="M238.86 493V297.762H378.908V493H238.86Z" fill="url(#paint0_linear_1_448)" stroke="#FF6207" stroke-width="2"/>
<path d="M238.67 493V297.762H199.138L161.086 312.087L123.956 353.691V493H238.67Z" fill="url(#paint1_linear_1_448)" stroke="#FF6207" stroke-width="2"/>
<mask id="path-3-inside-1_1_448" fill="white">
<path fill-rule="evenodd" clip-rule="evenodd" d="M264.872 35.5664C262.788 39.4748 261.824 43.8831 262.086 48.3041C262.086 48.3041 262.798 49.0911 263.958 50.2974C251.225 46.2833 239.656 52.7298 237.117 54.5915C237.117 54.5915 220.639 57.4693 220.61 74.6063C220.59 86.3621 227.3 90.9287 229.952 92.2742C231.944 98.3408 235.008 104.884 239.63 109.21C245.104 114.332 250.224 114.45 256.757 108.048L257.079 118.941C253.544 120.363 243.751 124.365 241.429 125.974L235.924 128.503C232.882 129.902 230.2 131.927 228.069 134.433C225.938 136.939 224.412 139.865 223.597 143.002L205.662 212.134L195.789 236.143L190.531 241.946C175.077 245.497 164.575 248.283 164.575 248.283C164.698 248.308 164.82 248.334 164.942 248.36C165.03 248.379 165.118 248.398 165.206 248.417C162.367 249.417 159.529 251.064 156.789 253.563C143.385 265.793 97.7882 333.052 77.2607 363.742L61.9596 386.277C61.5404 386.764 61.0996 387.232 60.6388 387.678L60.3271 387.444C60.1537 387.313 59.9465 387.233 59.7303 387.213C59.5142 387.192 59.2958 387.231 59.1006 387.327L49.4974 391.983C49.2933 392.081 49.1221 392.235 49.0035 392.427C48.8849 392.618 48.8234 392.841 48.8264 393.067C48.8291 393.227 48.8641 393.385 48.929 393.531C42.3177 394.928 36.3656 393.382 28.7973 390.26L29.0074 389.884L17.8009 384.274L17.0577 385.601C11.2902 384.39 7.00841 386.369 5.14633 389.969C4.91348 389.611 4.68961 389.242 4.47517 388.862C4.40761 388.738 4.30478 388.637 4.18093 388.571C4.05708 388.504 3.91672 388.475 3.77636 388.486C3.63599 388.498 3.50238 388.549 3.39054 388.635C3.2787 388.72 3.1939 388.836 3.14661 388.968C1.83081 392.856 2.84936 396.542 7.24037 399.001L66.7907 432.337C67.1165 432.52 67.4985 432.579 67.8641 432.501C68.2304 432.424 68.5561 432.218 68.7813 431.919L79.7236 417.42C79.8587 417.24 79.9532 417.032 80.0005 416.811C80.0478 416.59 80.0463 416.361 79.996 416.141C79.9457 415.921 79.8489 415.714 79.7108 415.536C79.5727 415.357 79.3978 415.21 79.1974 415.106C78.8001 414.896 78.3977 414.695 77.9903 414.5C78.8701 413.347 79.6034 411.602 80.2571 409.742C82.4342 408.476 83.6136 404.782 82.4924 403.148C82.6363 402.798 82.7862 402.451 82.9418 402.106L88.9385 394.121L88.9397 394.122L159.786 314.448L174.359 405.696L173.672 405.676C173.672 405.676 178.396 429.234 177.254 441.52L176.896 441.542C176.678 441.556 176.469 441.629 176.291 441.753C176.113 441.878 175.973 442.05 175.885 442.249L171.593 452.021C171.502 452.227 171.472 452.455 171.506 452.678C171.539 452.902 171.637 453.111 171.786 453.28C171.892 453.401 172.021 453.499 172.165 453.567C168.037 458.917 162.504 461.599 154.718 464.129L154.635 463.708L142.465 466.702L142.76 468.195C137.575 471.018 135.601 475.31 136.529 479.264C136.116 479.129 135.704 478.986 135.294 478.836C135.163 478.786 135.02 478.776 134.882 478.806C134.745 478.835 134.619 478.904 134.519 479.003C134.42 479.103 134.351 479.229 134.321 479.366C134.292 479.504 134.303 479.647 134.352 479.779C135.871 483.591 139.037 485.737 143.973 484.762L210.925 471.529C211.292 471.457 211.62 471.254 211.849 470.957C212.078 470.662 212.191 470.293 212.169 469.919L211.098 451.786C211.085 451.561 211.021 451.342 210.914 451.143C210.807 450.944 210.657 450.772 210.477 450.636C210.296 450.501 210.088 450.407 209.867 450.36C209.646 450.314 209.417 450.315 209.198 450.365C208.76 450.464 208.323 450.571 207.887 450.687C207.809 449.238 207.235 447.434 206.527 445.594C207.362 443.219 205.866 439.645 203.954 439.127C203.837 438.767 203.725 438.405 203.62 438.041C203.253 436.441 202.705 427.078 202.286 418.968L202.631 418.982L199.971 296.762H268.73C279.347 296.574 293.713 293.901 305.459 276.447C312.537 265.928 310.095 244.23 308.539 234.531C308.866 234.329 309.167 234.084 309.432 233.803C309.862 233.347 310.19 232.806 310.395 232.214C310.6 231.622 310.676 230.994 310.62 230.37C310.533 229.412 310.44 228.402 310.342 227.344L310.342 227.343L310.342 227.34L310.341 227.332C309.908 222.63 309.388 216.992 308.965 210.818C309.22 209.96 309.309 209.426 309.309 209.426C309.309 209.426 321.162 146.775 323.712 133.895C323.869 133.296 323.993 132.684 324.082 132.061C324.112 131.909 324.131 131.761 324.14 131.617C324.215 130.976 324.253 130.324 324.253 129.663C324.253 120.438 316.775 112.96 307.55 112.96H307.545L277.82 112.026L274.943 106.419C274.892 105.227 274.989 102.177 277.037 99.8054C279.173 97.3324 285.241 76.1135 278.684 62.3087C279.051 62.4523 279.402 62.5622 279.733 62.6338C285.555 63.8918 296.982 60.1133 301.094 48.3041C305.208 36.4957 297.247 28.1363 286.367 24.4215C275.487 20.7061 268.322 29.3305 264.872 35.5664Z"/>
</mask>
<path fill-rule="evenodd" clip-rule="evenodd" d="M264.872 35.5664C262.788 39.4748 261.824 43.8831 262.086 48.3041C262.086 48.3041 262.798 49.0911 263.958 50.2974C251.225 46.2833 239.656 52.7298 237.117 54.5915C237.117 54.5915 220.639 57.4693 220.61 74.6063C220.59 86.3621 227.3 90.9287 229.952 92.2742C231.944 98.3408 235.008 104.884 239.63 109.21C245.104 114.332 250.224 114.45 256.757 108.048L257.079 118.941C253.544 120.363 243.751 124.365 241.429 125.974L235.924 128.503C232.882 129.902 230.2 131.927 228.069 134.433C225.938 136.939 224.412 139.865 223.597 143.002L205.662 212.134L195.789 236.143L190.531 241.946C175.077 245.497 164.575 248.283 164.575 248.283C164.698 248.308 164.82 248.334 164.942 248.36C165.03 248.379 165.118 248.398 165.206 248.417C162.367 249.417 159.529 251.064 156.789 253.563C143.385 265.793 97.7882 333.052 77.2607 363.742L61.9596 386.277C61.5404 386.764 61.0996 387.232 60.6388 387.678L60.3271 387.444C60.1537 387.313 59.9465 387.233 59.7303 387.213C59.5142 387.192 59.2958 387.231 59.1006 387.327L49.4974 391.983C49.2933 392.081 49.1221 392.235 49.0035 392.427C48.8849 392.618 48.8234 392.841 48.8264 393.067C48.8291 393.227 48.8641 393.385 48.929 393.531C42.3177 394.928 36.3656 393.382 28.7973 390.26L29.0074 389.884L17.8009 384.274L17.0577 385.601C11.2902 384.39 7.00841 386.369 5.14633 389.969C4.91348 389.611 4.68961 389.242 4.47517 388.862C4.40761 388.738 4.30478 388.637 4.18093 388.571C4.05708 388.504 3.91672 388.475 3.77636 388.486C3.63599 388.498 3.50238 388.549 3.39054 388.635C3.2787 388.72 3.1939 388.836 3.14661 388.968C1.83081 392.856 2.84936 396.542 7.24037 399.001L66.7907 432.337C67.1165 432.52 67.4985 432.579 67.8641 432.501C68.2304 432.424 68.5561 432.218 68.7813 431.919L79.7236 417.42C79.8587 417.24 79.9532 417.032 80.0005 416.811C80.0478 416.59 80.0463 416.361 79.996 416.141C79.9457 415.921 79.8489 415.714 79.7108 415.536C79.5727 415.357 79.3978 415.21 79.1974 415.106C78.8001 414.896 78.3977 414.695 77.9903 414.5C78.8701 413.347 79.6034 411.602 80.2571 409.742C82.4342 408.476 83.6136 404.782 82.4924 403.148C82.6363 402.798 82.7862 402.451 82.9418 402.106L88.9385 394.121L88.9397 394.122L159.786 314.448L174.359 405.696L173.672 405.676C173.672 405.676 178.396 429.234 177.254 441.52L176.896 441.542C176.678 441.556 176.469 441.629 176.291 441.753C176.113 441.878 175.973 442.05 175.885 442.249L171.593 452.021C171.502 452.227 171.472 452.455 171.506 452.678C171.539 452.902 171.637 453.111 171.786 453.28C171.892 453.401 172.021 453.499 172.165 453.567C168.037 458.917 162.504 461.599 154.718 464.129L154.635 463.708L142.465 466.702L142.76 468.195C137.575 471.018 135.601 475.31 136.529 479.264C136.116 479.129 135.704 478.986 135.294 478.836C135.163 478.786 135.02 478.776 134.882 478.806C134.745 478.835 134.619 478.904 134.519 479.003C134.42 479.103 134.351 479.229 134.321 479.366C134.292 479.504 134.303 479.647 134.352 479.779C135.871 483.591 139.037 485.737 143.973 484.762L210.925 471.529C211.292 471.457 211.62 471.254 211.849 470.957C212.078 470.662 212.191 470.293 212.169 469.919L211.098 451.786C211.085 451.561 211.021 451.342 210.914 451.143C210.807 450.944 210.657 450.772 210.477 450.636C210.296 450.501 210.088 450.407 209.867 450.36C209.646 450.314 209.417 450.315 209.198 450.365C208.76 450.464 208.323 450.571 207.887 450.687C207.809 449.238 207.235 447.434 206.527 445.594C207.362 443.219 205.866 439.645 203.954 439.127C203.837 438.767 203.725 438.405 203.62 438.041C203.253 436.441 202.705 427.078 202.286 418.968L202.631 418.982L199.971 296.762H268.73C279.347 296.574 293.713 293.901 305.459 276.447C312.537 265.928 310.095 244.23 308.539 234.531C308.866 234.329 309.167 234.084 309.432 233.803C309.862 233.347 310.19 232.806 310.395 232.214C310.6 231.622 310.676 230.994 310.62 230.37C310.533 229.412 310.44 228.402 310.342 227.344L310.342 227.343L310.342 227.34L310.341 227.332C309.908 222.63 309.388 216.992 308.965 210.818C309.22 209.96 309.309 209.426 309.309 209.426C309.309 209.426 321.162 146.775 323.712 133.895C323.869 133.296 323.993 132.684 324.082 132.061C324.112 131.909 324.131 131.761 324.14 131.617C324.215 130.976 324.253 130.324 324.253 129.663C324.253 120.438 316.775 112.96 307.55 112.96H307.545L277.82 112.026L274.943 106.419C274.892 105.227 274.989 102.177 277.037 99.8054C279.173 97.3324 285.241 76.1135 278.684 62.3087C279.051 62.4523 279.402 62.5622 279.733 62.6338C285.555 63.8918 296.982 60.1133 301.094 48.3041C305.208 36.4957 297.247 28.1363 286.367 24.4215C275.487 20.7061 268.322 29.3305 264.872 35.5664Z" fill="#272727"/>
<path d="M198.029 228.535C196.909 229.259 195.872 229.934 195.116 230.428C194.738 230.675 194.43 230.877 194.216 231.017C194.109 231.087 194.026 231.142 193.969 231.179C193.941 231.197 193.919 231.212 193.905 231.221C193.897 231.226 193.892 231.23 193.888 231.232C193.886 231.233 193.885 231.234 193.884 231.235C193.883 231.235 193.883 231.235 193.883 231.236C193.883 231.236 193.883 231.236 193.883 231.236C193.883 231.236 193.883 231.236 193.883 231.236C193.883 231.236 193.883 231.236 194.432 232.071C194.981 232.907 194.981 232.907 194.981 232.907C194.981 232.907 194.981 232.907 194.981 232.907C194.981 232.907 194.981 232.907 194.981 232.907C194.982 232.907 194.982 232.907 194.982 232.906C194.983 232.906 194.985 232.905 194.986 232.904C194.99 232.901 194.995 232.898 195.003 232.893C195.017 232.883 195.039 232.869 195.067 232.851C195.123 232.814 195.206 232.76 195.312 232.69C195.525 232.55 195.833 232.349 196.21 232.103C196.964 231.61 197.998 230.937 199.115 230.215L198.029 228.535ZM262.086 48.3041L260.089 48.4224L260.131 49.1244L260.603 49.6458L262.086 48.3041ZM264.872 35.5664L263.122 34.5983L263.114 34.6117L263.107 34.6253L264.872 35.5664ZM263.958 50.2974L263.357 52.2049L265.399 48.9108L263.958 50.2974ZM237.117 54.5915L237.461 56.5617L237.922 56.4812L238.299 56.2044L237.117 54.5915ZM220.61 74.6063L218.61 74.6029V74.6029L220.61 74.6063ZM229.952 92.2742L231.852 91.6502L231.594 90.8647L230.856 90.4906L229.952 92.2742ZM239.63 109.21L240.997 107.749L240.997 107.749L239.63 109.21ZM256.757 108.048L258.756 107.989L258.621 103.421L255.357 106.619L256.757 108.048ZM257.079 118.941L257.826 120.796L259.12 120.276L259.078 118.882L257.079 118.941ZM241.429 125.974L242.264 127.791L242.423 127.718L242.567 127.618L241.429 125.974ZM235.924 128.503L235.089 126.686L235.089 126.686L235.924 128.503ZM228.069 134.433L226.546 133.137L226.545 133.137L228.069 134.433ZM223.597 143.002L221.661 142.499L221.661 142.5L223.597 143.002ZM205.662 212.134L207.512 212.895L207.564 212.769L207.598 212.636L205.662 212.134ZM195.789 236.143L197.271 237.486L197.506 237.227L197.639 236.904L195.789 236.143ZM190.531 241.946L190.979 243.895L191.591 243.755L192.013 243.289L190.531 241.946ZM164.575 248.283L164.062 246.35L164.171 250.242L164.575 248.283ZM164.942 248.36L164.523 250.315L164.523 250.316L164.942 248.36ZM165.206 248.417L165.87 250.304L172.478 247.977L165.637 246.465L165.206 248.417ZM156.789 253.563L158.137 255.041L158.137 255.041L156.789 253.563ZM77.2607 363.742L78.9154 364.865L78.9231 364.854L77.2607 363.742ZM61.9596 386.277L63.4761 387.58L63.5503 387.494L63.6142 387.4L61.9596 386.277ZM60.6388 387.678L59.4391 389.278L60.8039 390.301L62.0297 389.115L60.6388 387.678ZM60.3271 387.444L59.1237 389.041L59.1274 389.044L60.3271 387.444ZM59.7303 387.213L59.537 389.203L59.5434 389.204L59.7303 387.213ZM59.1006 387.327L59.9731 389.126L59.9783 389.124L59.1006 387.327ZM49.4974 391.983L50.3652 393.785L50.37 393.782L49.4974 391.983ZM49.0035 392.427L50.7036 393.48L50.7054 393.478L49.0035 392.427ZM48.8264 393.067L46.8266 393.093L46.8267 393.1L48.8264 393.067ZM48.929 393.531L49.3424 395.488L51.7637 394.976L50.7555 392.716L48.929 393.531ZM28.7973 390.26L27.0521 389.283L25.9514 391.249L28.0345 392.108L28.7973 390.26ZM29.0074 389.884L30.7526 390.861L31.7756 389.034L29.9028 388.096L29.0074 389.884ZM17.8009 384.274L18.6963 382.485L16.9886 381.63L16.0558 383.297L17.8009 384.274ZM17.0577 385.601L16.6466 387.559L18.0849 387.861L18.8028 386.578L17.0577 385.601ZM5.14633 389.969L3.46943 391.059L5.34332 393.942L6.92283 390.888L5.14633 389.969ZM4.47517 388.862L2.7218 389.824L2.72728 389.834L2.73287 389.844L4.47517 388.862ZM4.18093 388.571L3.23145 390.331L3.23956 390.336L4.18093 388.571ZM3.77636 388.486L3.9363 390.48H3.9363L3.77636 388.486ZM3.39054 388.635L2.17522 387.047H2.17522L3.39054 388.635ZM3.14661 388.968L1.2636 388.294L1.25776 388.311L1.25219 388.327L3.14661 388.968ZM7.24037 399.001L6.26339 400.746H6.26342L7.24037 399.001ZM66.7907 432.337L67.7709 430.594L67.7677 430.592L66.7907 432.337ZM67.8641 432.501L67.4509 430.545L67.4503 430.545L67.8641 432.501ZM68.7813 431.919L67.1849 430.714L67.1842 430.715L68.7813 431.919ZM79.7236 417.42L81.32 418.624L81.3236 418.62L79.7236 417.42ZM80.0005 416.811L81.9561 417.23L81.9564 417.229L80.0005 416.811ZM79.996 416.141L78.046 416.586L78.0463 416.587L79.996 416.141ZM79.7108 415.536L81.2931 414.312L81.293 414.312L79.7108 415.536ZM79.1974 415.106L78.265 416.875L78.2738 416.88L79.1974 415.106ZM77.9903 414.5L76.4001 413.287L74.9065 415.245L77.1292 416.305L77.9903 414.5ZM80.2571 409.742L79.2515 408.013L78.6146 408.384L78.3703 409.079L80.2571 409.742ZM82.4924 403.148L80.643 402.386L80.231 403.387L80.8433 404.279L82.4924 403.148ZM82.9418 402.106L81.3426 400.905L81.2099 401.082L81.119 401.283L82.9418 402.106ZM88.9385 394.121L90.0919 392.487L88.5055 391.368L87.3393 392.92L88.9385 394.121ZM88.9397 394.122L87.7863 395.756L89.2466 396.787L90.4343 395.451L88.9397 394.122ZM159.786 314.448L161.761 314.132L161.096 309.965L158.292 313.119L159.786 314.448ZM174.359 405.696L174.3 407.696L176.716 407.768L176.334 405.381L174.359 405.696ZM173.672 405.676L173.731 403.677L171.216 403.602L171.711 406.069L173.672 405.676ZM177.254 441.52L177.378 443.516L179.087 443.41L179.245 441.705L177.254 441.52ZM176.896 441.542L177.02 443.539L176.896 441.542ZM176.291 441.753L175.147 440.113L175.143 440.115L176.291 441.753ZM175.885 442.249L177.717 443.053L177.718 443.051L175.885 442.249ZM171.593 452.021L173.422 452.832L173.425 452.825L171.593 452.021ZM171.506 452.678L173.483 452.38L173.483 452.379L171.506 452.678ZM171.786 453.28L170.281 454.598L170.285 454.602L171.786 453.28ZM172.165 453.567L173.748 454.789L175.258 452.833L173.029 451.764L172.165 453.567ZM154.718 464.129L152.756 464.517L153.193 466.728L155.336 466.031L154.718 464.129ZM154.635 463.708L156.597 463.32L156.191 461.266L154.157 461.766L154.635 463.708ZM142.465 466.702L141.987 464.76L140.133 465.216L140.503 467.09L142.465 466.702ZM142.76 468.195L143.716 469.952L145.007 469.249L144.722 467.807L142.76 468.195ZM136.529 479.264L135.908 481.165L139.289 482.269L138.476 478.807L136.529 479.264ZM135.294 478.836L134.588 480.707L134.596 480.71L134.605 480.713L135.294 478.836ZM134.882 478.806L135.299 480.762L135.309 480.76L134.882 478.806ZM134.519 479.003L133.11 477.584L133.105 477.589L133.099 477.594L134.519 479.003ZM134.321 479.366L132.368 478.939L132.365 478.95L134.321 479.366ZM134.352 479.779L132.481 480.484L132.487 480.502L132.494 480.519L134.352 479.779ZM143.973 484.762L143.586 482.8H143.586L143.973 484.762ZM210.925 471.529L210.539 469.566L210.537 469.567L210.925 471.529ZM211.849 470.957L210.267 469.733L210.266 469.735L211.849 470.957ZM212.169 469.919L214.166 469.803L214.166 469.801L212.169 469.919ZM211.098 451.786L213.095 451.668L213.094 451.667L211.098 451.786ZM210.914 451.143L212.674 450.193L212.674 450.193L210.914 451.143ZM209.867 450.36L210.28 448.403L210.278 448.403L209.867 450.36ZM209.198 450.365L209.635 452.317L209.643 452.315L209.198 450.365ZM207.887 450.687L205.889 450.794L206.021 453.254L208.401 452.62L207.887 450.687ZM206.527 445.594L204.64 444.931L204.396 445.625L204.66 446.313L206.527 445.594ZM203.954 439.127L202.052 439.746L202.387 440.774L203.431 441.057L203.954 439.127ZM203.62 438.041L201.671 438.488L201.683 438.542L201.699 438.596L203.62 438.041ZM202.286 418.968L202.369 416.969L200.175 416.878L200.288 419.071L202.286 418.968ZM202.631 418.982L202.547 420.98L204.677 421.069L204.63 418.939L202.631 418.982ZM199.971 296.762V294.762H197.927L197.972 296.805L199.971 296.762ZM268.73 296.762V298.762H268.748L268.766 298.762L268.73 296.762ZM305.459 276.447L307.118 277.564L307.118 277.564L305.459 276.447ZM308.539 234.531L307.488 232.829L306.353 233.531L306.564 234.848L308.539 234.531ZM309.432 233.803L307.978 232.43L307.977 232.431L309.432 233.803ZM310.395 232.214L308.505 231.559L308.505 231.56L310.395 232.214ZM310.62 230.37L312.612 230.19L312.612 230.19L310.62 230.37ZM310.342 227.344L312.334 227.16L312.332 227.142L312.33 227.123L310.342 227.344ZM310.342 227.343L308.351 227.533L308.353 227.548L308.354 227.564L310.342 227.343ZM310.342 227.34L308.35 227.523L308.351 227.53L310.342 227.34ZM310.341 227.332L312.333 227.149L312.333 227.149L310.341 227.332ZM308.965 210.818L307.048 210.248L306.945 210.594L306.97 210.955L308.965 210.818ZM309.309 209.426L307.344 209.054L307.34 209.076L307.337 209.097L309.309 209.426ZM323.712 133.895L321.777 133.39L321.762 133.448L321.75 133.507L323.712 133.895ZM324.082 132.061L322.12 131.675L322.11 131.725L322.103 131.776L324.082 132.061ZM324.14 131.617L322.153 131.386L322.147 131.441L322.144 131.497L324.14 131.617ZM307.545 112.96L307.482 114.959L307.514 114.96H307.545V112.96ZM277.82 112.026L276.041 112.939L276.579 113.988L277.758 114.025L277.82 112.026ZM274.943 106.419L272.945 106.506L272.964 106.943L273.164 107.332L274.943 106.419ZM277.037 99.8054L275.523 98.4981L275.523 98.4983L277.037 99.8054ZM278.684 62.3087L279.412 60.4462L274.711 58.6071L276.877 63.1668L278.684 62.3087ZM279.733 62.6338L280.156 60.6789L280.155 60.6789L279.733 62.6338ZM301.094 48.3041L299.206 47.6462L299.206 47.6464L301.094 48.3041ZM286.367 24.4215L285.721 26.3142L285.721 26.3143L286.367 24.4215ZM264.082 48.1858C263.842 44.1324 264.726 40.0908 266.637 36.5076L263.107 34.6253C260.849 38.8589 259.805 43.6338 260.089 48.4224L264.082 48.1858ZM265.399 48.9108C264.828 48.3169 264.368 47.827 264.052 47.4868C263.894 47.3167 263.772 47.1841 263.69 47.0948C263.649 47.0501 263.618 47.0163 263.598 46.994C263.587 46.9828 263.58 46.9746 263.575 46.9693C263.573 46.9666 263.571 46.9647 263.57 46.9636C263.569 46.963 263.569 46.9626 263.569 46.9624C263.569 46.9623 263.569 46.9623 263.569 46.9623C263.569 46.9623 263.569 46.9623 263.569 46.9623C263.569 46.9623 263.569 46.9624 263.569 46.9624C263.569 46.9624 263.569 46.9624 262.086 48.3041C260.603 49.6458 260.603 49.6459 260.603 49.6459C260.603 49.6459 260.603 49.646 260.603 49.646C260.603 49.6461 260.603 49.6462 260.603 49.6462C260.603 49.6464 260.603 49.6467 260.604 49.647C260.604 49.6475 260.605 49.6483 260.606 49.6492C260.607 49.6511 260.61 49.6538 260.613 49.6572C260.619 49.6641 260.628 49.6739 260.64 49.6866C260.663 49.712 260.697 49.7491 260.741 49.7971C260.828 49.893 260.957 50.0326 261.122 50.21C261.452 50.5648 261.928 51.0716 262.517 51.684L265.399 48.9108ZM238.299 56.2044C239.381 55.4114 242.691 53.4429 247.253 52.1671C251.795 50.8971 257.459 50.3457 263.357 52.2049L264.559 48.3899C257.724 46.235 251.237 46.8998 246.176 48.3149C241.136 49.7243 237.392 51.9098 235.934 52.9786L238.299 56.2044ZM222.61 74.6097C222.623 66.8145 226.323 62.3776 230.015 59.8156C231.89 58.5142 233.776 57.6928 235.199 57.1979C235.907 56.9515 236.492 56.7889 236.892 56.6894C237.091 56.6398 237.244 56.606 237.341 56.5856C237.39 56.5754 237.425 56.5685 237.446 56.5646C237.456 56.5627 237.462 56.5615 237.465 56.561C237.466 56.5608 237.466 56.5607 237.466 56.5608C237.465 56.5609 237.465 56.561 237.464 56.5611C237.464 56.5612 237.463 56.5614 237.463 56.5614C237.462 56.5615 237.461 56.5617 237.117 54.5915C236.773 52.6213 236.772 52.6215 236.771 52.6217C236.77 52.6218 236.769 52.622 236.768 52.6222C236.766 52.6225 236.764 52.6228 236.762 52.6233C236.757 52.6241 236.752 52.6251 236.745 52.6263C236.732 52.6287 236.715 52.6319 236.694 52.636C236.651 52.644 236.594 52.6554 236.522 52.6704C236.378 52.7005 236.177 52.7454 235.926 52.8079C235.424 52.9327 234.721 53.1288 233.885 53.42C232.217 54.0002 229.982 54.9693 227.734 56.5295C223.179 59.6906 218.626 65.2611 218.61 74.6029L222.61 74.6097ZM230.856 90.4906C228.654 89.3731 222.591 85.3893 222.61 74.6096L218.61 74.6029C218.588 87.3349 225.945 92.4843 229.047 94.0578L230.856 90.4906ZM240.997 107.749C236.742 103.767 233.808 97.6078 231.852 91.6502L228.051 92.8982C230.079 99.0738 233.273 106 238.264 110.67L240.997 107.749ZM255.357 106.619C252.241 109.673 249.771 110.856 247.703 110.953C245.68 111.048 243.535 110.125 240.997 107.749L238.263 110.67C241.199 113.417 244.351 115.115 247.89 114.948C251.383 114.785 254.74 112.825 258.157 109.476L255.357 106.619ZM259.078 118.882L258.756 107.989L254.758 108.107L255.08 119L259.078 118.882ZM242.567 127.618C243.001 127.317 243.915 126.826 245.222 126.199C246.489 125.591 248.016 124.907 249.595 124.222C252.751 122.853 256.064 121.505 257.826 120.796L256.333 117.085C254.559 117.799 251.208 119.163 248.003 120.553C246.402 121.247 244.824 121.954 243.492 122.593C242.199 123.213 241.017 123.826 240.29 124.329L242.567 127.618ZM236.759 130.321L242.264 127.791L240.593 124.156L235.089 126.686L236.759 130.321ZM229.593 135.728C231.532 133.448 233.977 131.6 236.76 130.321L235.089 126.686C231.787 128.204 228.868 130.405 226.546 133.137L229.593 135.728ZM225.533 143.505C226.27 140.664 227.654 138.008 229.593 135.728L226.545 133.137C224.222 135.87 222.553 139.066 221.661 142.499L225.533 143.505ZM207.598 212.636L225.533 143.504L221.661 142.5L203.726 211.632L207.598 212.636ZM197.639 236.904L207.512 212.895L203.813 211.373L193.939 235.382L197.639 236.904ZM192.013 243.289L197.271 237.486L194.307 234.8L189.049 240.603L192.013 243.289ZM164.575 248.283C165.087 250.216 165.087 250.216 165.087 250.216C165.087 250.216 165.088 250.216 165.088 250.216C165.088 250.216 165.088 250.216 165.089 250.215C165.09 250.215 165.092 250.215 165.094 250.214C165.099 250.213 165.107 250.211 165.116 250.208C165.136 250.203 165.166 250.195 165.206 250.184C165.286 250.163 165.405 250.132 165.563 250.091C165.878 250.008 166.346 249.886 166.957 249.728C168.179 249.413 169.97 248.955 172.243 248.386C176.79 247.249 183.267 245.668 190.979 243.895L190.083 239.997C182.342 241.776 175.84 243.363 171.272 244.506C168.988 245.077 167.188 245.538 165.957 245.855C165.342 246.014 164.869 246.138 164.549 246.221C164.39 246.263 164.268 246.295 164.187 246.317C164.146 246.327 164.115 246.336 164.094 246.341C164.084 246.344 164.076 246.346 164.07 246.347C164.068 246.348 164.066 246.349 164.064 246.349C164.064 246.349 164.063 246.349 164.063 246.349C164.062 246.349 164.062 246.349 164.062 246.349C164.062 246.35 164.062 246.35 164.575 248.283ZM165.362 246.405C165.235 246.377 165.107 246.35 164.978 246.324L164.171 250.242C164.289 250.266 164.406 250.29 164.523 250.315L165.362 246.405ZM165.637 246.465C165.546 246.444 165.454 246.424 165.362 246.405L164.523 250.316C164.607 250.334 164.69 250.352 164.774 250.37L165.637 246.465ZM158.137 255.041C160.687 252.715 163.294 251.211 165.87 250.304L164.541 246.531C161.44 247.623 158.371 249.413 155.441 252.086L158.137 255.041ZM78.9231 364.854C89.1837 349.514 105.704 325.042 121.331 302.883C129.145 291.802 136.727 281.311 143.186 272.835C149.682 264.308 154.941 257.957 158.137 255.041L155.441 252.086C151.936 255.284 146.468 261.927 140.004 270.41C133.502 278.943 125.888 289.479 118.062 300.577C102.407 322.777 85.8652 347.28 75.5983 362.63L78.9231 364.854ZM63.6142 387.4L78.9153 364.865L75.6061 362.618L60.3049 385.153L63.6142 387.4ZM62.0297 389.115C62.5344 388.626 63.0171 388.114 63.4761 387.58L60.443 384.973C60.0637 385.414 59.6649 385.837 59.2479 386.24L62.0297 389.115ZM59.1274 389.044L59.4391 389.278L61.8385 386.077L61.5268 385.844L59.1274 389.044ZM59.5434 389.204C59.3907 389.19 59.246 389.133 59.1237 389.041L61.5305 385.846C61.0614 385.493 60.5023 385.276 59.9173 385.221L59.5434 389.204ZM59.9783 389.124C59.8429 389.19 59.6908 389.218 59.537 389.203L59.9237 385.222C59.3376 385.165 58.7486 385.273 58.2229 385.53L59.9783 389.124ZM50.37 393.782L59.9731 389.126L58.2281 385.527L48.6249 390.183L50.37 393.782ZM50.7054 393.478C50.6225 393.612 50.5035 393.718 50.3652 393.785L48.6296 390.181C48.083 390.444 47.6218 390.858 47.3016 391.377L50.7054 393.478ZM50.8262 393.04C50.8283 393.194 50.7865 393.347 50.7036 393.48L47.3034 391.374C46.9833 391.89 46.8185 392.487 46.8266 393.093L50.8262 393.04ZM50.7555 392.716C50.8008 392.818 50.8243 392.926 50.8261 393.033L46.8267 393.1C46.8338 393.529 46.9274 393.953 47.1025 394.346L50.7555 392.716ZM28.0345 392.108C35.7059 395.273 42.1254 397.012 49.3424 395.488L48.5156 391.574C42.51 392.843 37.0254 391.491 29.5601 388.411L28.0345 392.108ZM27.2622 388.907L27.0521 389.283L30.5425 391.237L30.7526 390.861L27.2622 388.907ZM16.9056 386.062L28.112 391.673L29.9028 388.096L18.6963 382.485L16.9056 386.062ZM18.8028 386.578L19.5461 385.25L16.0558 383.297L15.3125 384.624L18.8028 386.578ZM6.92283 390.888C8.26968 388.284 11.5199 386.482 16.6466 387.559L17.4687 383.644C11.0604 382.298 5.74715 384.454 3.36984 389.051L6.92283 390.888ZM2.73287 389.844C2.968 390.261 3.21367 390.666 3.46943 391.059L6.82323 388.879C6.61329 388.556 6.41123 388.223 6.21746 387.88L2.73287 389.844ZM3.23956 390.336C3.02257 390.22 2.84231 390.043 2.7218 389.824L6.22853 387.899C5.97292 387.434 5.58699 387.054 5.12231 386.807L3.23956 390.336ZM3.9363 390.48C3.69442 390.499 3.44922 390.449 3.23146 390.331L5.1304 386.811C4.66494 386.56 4.13901 386.451 3.61641 386.493L3.9363 390.48ZM4.60586 390.223C4.41584 390.369 4.18392 390.46 3.9363 390.48L3.61642 386.493C3.08807 386.535 2.58892 386.73 2.17522 387.047L4.60586 390.223ZM5.02962 389.642C4.94576 389.876 4.79693 390.077 4.60587 390.223L2.17522 387.047C1.76048 387.364 1.44204 387.796 1.2636 388.294L5.02962 389.642ZM8.21735 397.256C6.34312 396.206 5.3675 395.003 4.92755 393.822C4.48431 392.633 4.49461 391.224 5.04103 389.609L1.25219 388.327C0.482817 390.6 0.344486 392.978 1.17932 395.219C2.01745 397.468 3.74661 399.337 6.26339 400.746L8.21735 397.256ZM67.7677 430.592L8.21731 397.256L6.26342 400.746L65.8138 434.082L67.7677 430.592ZM67.4503 430.545C67.5601 430.522 67.6736 430.539 67.7709 430.594L65.8105 434.08C66.5594 434.501 67.4369 434.636 68.2778 434.458L67.4503 430.545ZM67.1842 430.715C67.2515 430.626 67.3473 430.566 67.4509 430.545L68.2772 434.458C69.1134 434.282 69.8608 433.81 70.3784 433.123L67.1842 430.715ZM78.1271 416.215L67.1849 430.714L70.3777 433.124L81.32 418.624L78.1271 416.215ZM78.0449 416.392C78.0581 416.33 78.0845 416.272 78.1236 416.22L81.3236 418.62C81.6329 418.207 81.8484 417.733 81.9561 417.23L78.0449 416.392ZM78.0463 416.587C78.0314 416.522 78.0313 416.455 78.0446 416.393L81.9564 417.229C82.0643 416.724 82.0612 416.201 81.9457 415.696L78.0463 416.587ZM78.1285 416.759C78.0866 416.705 78.0594 416.645 78.046 416.586L81.946 415.697C81.832 415.197 81.6113 414.724 81.2931 414.312L78.1285 416.759ZM78.2738 416.88C78.2137 416.848 78.1651 416.806 78.1286 416.759L81.293 414.312C80.9803 413.908 80.5818 413.572 80.121 413.332L78.2738 416.88ZM77.1292 416.305C77.5133 416.489 77.892 416.678 78.265 416.875L80.1298 413.336C79.7083 413.114 79.2821 412.901 78.8513 412.695L77.1292 416.305ZM78.3703 409.079C77.7189 410.932 77.0707 412.408 76.4001 413.287L79.5804 415.713C80.6694 414.286 81.4878 412.272 82.1439 410.405L78.3703 409.079ZM80.8433 404.279C80.8371 404.27 80.9152 404.389 80.9228 404.733C80.93 405.063 80.8677 405.488 80.7134 405.953C80.388 406.933 79.7943 407.698 79.2515 408.013L81.2627 411.471C82.897 410.52 83.9816 408.804 84.5098 407.213C85.0096 405.707 85.2315 403.605 84.1415 402.016L80.8433 404.279ZM81.119 401.283C80.9541 401.648 80.7955 402.016 80.643 402.386L84.3418 403.909C84.4772 403.58 84.6182 403.253 84.7646 402.929L81.119 401.283ZM87.3393 392.92L81.3426 400.905L84.541 403.307L90.5377 395.322L87.3393 392.92ZM90.0931 392.488L90.0919 392.487L87.7852 395.755L87.7863 395.756L90.0931 392.488ZM158.292 313.119L87.4451 392.793L90.4343 395.451L161.281 315.777L158.292 313.119ZM176.334 405.381L161.761 314.132L157.811 314.763L172.384 406.012L176.334 405.381ZM173.612 407.675L174.3 407.696L174.419 403.697L173.731 403.677L173.612 407.675ZM179.245 441.705C179.84 435.306 178.91 426.136 177.872 418.714C177.348 414.971 176.789 411.618 176.361 409.2C176.147 407.991 175.965 407.014 175.837 406.339C175.773 406.001 175.722 405.739 175.687 405.56C175.67 405.47 175.656 405.402 175.647 405.355C175.642 405.332 175.639 405.314 175.636 405.302C175.635 405.296 175.634 405.291 175.634 405.288C175.633 405.286 175.633 405.285 175.633 405.284C175.633 405.284 175.633 405.283 175.633 405.283C175.633 405.283 175.632 405.283 173.672 405.676C171.711 406.069 171.711 406.069 171.711 406.069C171.711 406.069 171.711 406.069 171.711 406.07C171.711 406.07 171.711 406.071 171.711 406.072C171.712 406.075 171.712 406.079 171.714 406.084C171.716 406.095 171.719 406.111 171.723 406.133C171.732 406.176 171.745 406.241 171.761 406.327C171.795 406.5 171.845 406.755 171.907 407.086C172.033 407.746 172.212 408.706 172.423 409.898C172.845 412.281 173.395 415.585 173.91 419.268C174.949 426.696 175.81 435.448 175.263 441.335L179.245 441.705ZM177.02 443.539L177.378 443.516L177.13 439.524L176.772 439.546L177.02 443.539ZM177.435 443.394C177.313 443.479 177.168 443.529 177.02 443.539L176.772 439.546C176.188 439.583 175.626 439.778 175.147 440.113L177.435 443.394ZM177.718 443.051C177.658 443.186 177.563 443.304 177.438 443.391L175.143 440.115C174.663 440.452 174.287 440.914 174.053 441.447L177.718 443.051ZM173.425 452.825L177.717 443.053L174.054 441.444L169.762 451.217L173.425 452.825ZM173.483 452.379C173.506 452.529 173.486 452.686 173.422 452.832L169.765 451.21C169.518 451.768 169.438 452.382 169.528 452.978L173.483 452.379ZM173.29 451.962C173.391 452.078 173.459 452.222 173.483 452.38L169.528 452.977C169.619 453.582 169.883 454.144 170.281 454.598L173.29 451.962ZM173.029 451.764C173.128 451.811 173.215 451.878 173.287 451.959L170.285 454.602C170.569 454.924 170.914 455.186 171.3 455.371L173.029 451.764ZM155.336 466.031C163.228 463.467 169.242 460.629 173.748 454.789L170.581 452.346C166.832 457.205 161.78 459.732 154.1 462.227L155.336 466.031ZM152.673 464.096L152.756 464.517L156.68 463.741L156.597 463.32L152.673 464.096ZM142.943 468.644L155.112 465.65L154.157 461.766L141.987 464.76L142.943 468.644ZM144.722 467.807L144.427 466.315L140.503 467.09L140.798 468.583L144.722 467.807ZM138.476 478.807C137.805 475.947 139.108 472.46 143.716 469.952L141.804 466.438C136.043 469.575 133.397 474.673 134.582 479.721L138.476 478.807ZM134.605 480.713C135.037 480.872 135.472 481.023 135.908 481.165L137.15 477.363C136.76 477.235 136.371 477.1 135.984 476.958L134.605 480.713ZM135.309 480.76C135.069 480.812 134.819 480.794 134.588 480.707L136 476.964C135.507 476.778 134.97 476.739 134.455 476.852L135.309 480.76ZM135.928 480.423C135.761 480.589 135.544 480.709 135.299 480.762L134.465 476.85C133.945 476.961 133.477 477.22 133.11 477.584L135.928 480.423ZM136.275 479.794C136.225 480.025 136.109 480.24 135.938 480.412L133.099 477.594C132.73 477.966 132.478 478.434 132.368 478.939L136.275 479.794ZM136.224 479.073C136.31 479.303 136.327 479.549 136.278 479.783L132.365 478.95C132.257 479.458 132.295 479.992 132.481 480.484L136.224 479.073ZM143.586 482.8C141.479 483.216 139.955 482.932 138.855 482.319C137.746 481.701 136.841 480.622 136.21 479.038L132.494 480.519C133.382 482.748 134.819 484.648 136.907 485.812C139.003 486.981 141.532 487.283 144.361 486.724L143.586 482.8ZM210.537 469.567L143.586 482.8L144.361 486.724L211.312 473.491L210.537 469.567ZM210.266 469.735C210.333 469.648 210.431 469.587 210.539 469.566L211.31 473.491C212.153 473.326 212.906 472.86 213.432 472.18L210.266 469.735ZM210.173 470.036C210.166 469.93 210.198 469.822 210.267 469.733L213.43 472.182C213.957 471.501 214.215 470.656 214.166 469.803L210.173 470.036ZM209.102 451.904L210.173 470.037L214.166 469.801L213.095 451.668L209.102 451.904ZM209.154 452.093C209.125 452.039 209.106 451.976 209.102 451.906L213.094 451.667C213.063 451.147 212.918 450.645 212.674 450.193L209.154 452.093ZM209.28 452.239C209.229 452.201 209.186 452.151 209.154 452.093L212.674 450.193C212.428 449.737 212.086 449.342 211.673 449.034L209.28 452.239ZM209.454 452.317C209.388 452.303 209.329 452.275 209.28 452.239L211.673 449.034C211.263 448.727 210.788 448.51 210.28 448.403L209.454 452.317ZM209.643 452.315C209.578 452.33 209.514 452.33 209.456 452.317L210.278 448.403C209.777 448.298 209.257 448.3 208.752 448.416L209.643 452.315ZM208.401 452.62C208.813 452.51 209.224 452.409 209.635 452.317L208.76 448.414C208.295 448.518 207.833 448.632 207.372 448.755L208.401 452.62ZM204.66 446.313C205.366 448.146 205.83 449.69 205.889 450.794L209.884 450.58C209.787 448.786 209.104 446.722 208.393 444.875L204.66 446.313ZM203.431 441.057C203.42 441.054 203.557 441.095 203.786 441.351C204.005 441.598 204.233 441.962 204.417 442.415C204.805 443.372 204.848 444.338 204.64 444.931L208.414 446.257C209.04 444.475 208.754 442.466 208.124 440.913C207.528 439.443 206.335 437.7 204.477 437.196L203.431 441.057ZM201.699 438.596C201.81 438.981 201.928 439.365 202.052 439.746L205.855 438.507C205.745 438.169 205.641 437.828 205.542 437.486L201.699 438.596ZM200.288 419.071C200.498 423.129 200.741 427.509 200.977 431.078C201.095 432.861 201.212 434.452 201.324 435.704C201.43 436.895 201.543 437.928 201.671 438.488L205.57 437.594C205.515 437.354 205.421 436.616 205.308 435.349C205.2 434.141 205.086 432.585 204.968 430.814C204.734 427.274 204.493 422.917 204.283 418.864L200.288 419.071ZM202.714 416.984L202.369 416.969L202.202 420.966L202.547 420.98L202.714 416.984ZM197.972 296.805L200.631 419.026L204.63 418.939L201.971 296.718L197.972 296.805ZM268.73 294.762H199.971V298.762H268.73V294.762ZM303.799 275.331C298.123 283.765 291.879 288.543 285.851 291.255C279.801 293.977 273.853 294.671 268.695 294.762L268.766 298.762C274.224 298.665 280.767 297.928 287.492 294.903C294.237 291.868 301.048 286.583 307.118 277.564L303.799 275.331ZM306.564 234.848C307.334 239.645 308.315 247.369 308.237 255.161C308.158 263.052 306.99 270.589 303.799 275.331L307.118 277.564C311.006 271.786 312.156 263.215 312.237 255.201C312.318 247.09 311.3 239.117 310.513 234.214L306.564 234.848ZM307.977 232.431C307.832 232.584 307.668 232.718 307.488 232.829L309.59 236.233C310.065 235.939 310.502 235.584 310.888 235.174L307.977 232.431ZM308.505 231.56C308.392 231.885 308.213 232.181 307.978 232.43L310.887 235.175C311.512 234.513 311.988 233.726 312.285 232.868L308.505 231.56ZM308.628 230.55C308.659 230.892 308.617 231.236 308.505 231.559L312.284 232.868C312.582 232.008 312.693 231.096 312.612 230.19L308.628 230.55ZM308.351 227.528C308.448 228.586 308.541 229.594 308.628 230.55L312.612 230.19C312.525 229.23 312.431 228.217 312.334 227.16L308.351 227.528ZM308.354 227.564L308.355 227.565L312.33 227.123L312.33 227.122L308.354 227.564ZM308.351 227.53L308.351 227.533L312.333 227.153L312.333 227.151L308.351 227.53ZM308.35 227.515L308.35 227.523L312.334 227.157L312.333 227.149L308.35 227.515ZM306.97 210.955C307.394 217.155 307.916 222.815 308.35 227.516L312.333 227.149C311.899 222.445 311.381 216.828 310.96 210.682L306.97 210.955ZM309.309 209.426C307.337 209.097 307.337 209.097 307.337 209.097C307.337 209.097 307.337 209.097 307.337 209.096C307.337 209.096 307.337 209.096 307.337 209.096C307.337 209.095 307.337 209.095 307.337 209.094C307.337 209.094 307.337 209.093 307.337 209.092C307.338 209.091 307.338 209.091 307.338 209.091C307.338 209.09 307.337 209.092 307.337 209.096C307.335 209.104 307.333 209.119 307.328 209.141C307.319 209.187 307.304 209.261 307.282 209.361C307.236 209.562 307.162 209.866 307.048 210.248L310.882 211.389C311.024 210.912 311.121 210.52 311.184 210.239C311.216 210.099 311.239 209.986 311.255 209.904C311.263 209.863 311.269 209.83 311.273 209.805C311.276 209.793 311.277 209.782 311.279 209.774C311.28 209.769 311.28 209.766 311.281 209.763C311.281 209.761 311.281 209.76 311.282 209.758C311.282 209.758 311.282 209.757 311.282 209.756C311.282 209.756 311.282 209.756 311.282 209.755C311.282 209.755 311.282 209.755 311.282 209.755C311.282 209.755 311.282 209.755 309.309 209.426ZM321.75 133.507C320.473 139.956 316.871 158.849 313.589 176.117C311.948 184.754 310.387 192.988 309.236 199.063C308.661 202.101 308.188 204.598 307.858 206.337C307.694 207.206 307.565 207.885 307.478 208.347C307.434 208.578 307.401 208.755 307.378 208.874C307.367 208.933 307.358 208.979 307.353 209.009C307.35 209.024 307.348 209.035 307.346 209.043C307.346 209.047 307.345 209.049 307.345 209.051C307.345 209.052 307.344 209.053 307.344 209.053C307.344 209.054 307.344 209.054 309.309 209.426C311.274 209.798 311.274 209.797 311.275 209.797C311.275 209.797 311.275 209.796 311.275 209.795C311.275 209.793 311.276 209.79 311.277 209.786C311.278 209.779 311.28 209.767 311.283 209.752C311.289 209.722 311.297 209.677 311.309 209.618C311.331 209.499 311.364 209.322 311.408 209.091C311.496 208.629 311.624 207.95 311.789 207.081C312.118 205.343 312.591 202.845 313.166 199.808C314.317 193.733 315.878 185.5 317.519 176.864C320.802 159.587 324.401 140.714 325.674 134.284L321.75 133.507ZM322.103 131.776C322.024 132.325 321.915 132.863 321.777 133.39L325.647 134.401C325.823 133.729 325.961 133.043 326.062 132.345L322.103 131.776ZM322.144 131.497C322.141 131.546 322.133 131.605 322.12 131.675L326.045 132.447C326.091 132.212 326.122 131.976 326.136 131.738L322.144 131.497ZM322.253 129.663C322.253 130.246 322.219 130.821 322.153 131.386L326.126 131.849C326.21 131.131 326.253 130.402 326.253 129.663H322.253ZM307.55 114.96C315.67 114.96 322.253 121.542 322.253 129.663H326.253C326.253 119.333 317.879 110.96 307.55 110.96V114.96ZM307.545 114.96H307.55V110.96H307.545V114.96ZM277.758 114.025L307.482 114.959L307.608 110.961L277.883 110.027L277.758 114.025ZM273.164 107.332L276.041 112.939L279.6 111.113L276.723 105.506L273.164 107.332ZM275.523 98.4983C272.962 101.464 272.887 105.169 272.945 106.506L276.942 106.332C276.896 105.286 277.015 102.891 278.55 101.113L275.523 98.4983ZM276.877 63.1668C279.911 69.555 280.082 77.8523 279.137 85.0459C278.669 88.6089 277.938 91.8193 277.202 94.2691C276.834 95.4952 276.471 96.5095 276.148 97.2701C275.987 97.6507 275.843 97.9506 275.722 98.1731C275.593 98.4114 275.523 98.4986 275.523 98.4981L278.55 101.113C279.037 100.549 279.466 99.6934 279.831 98.8307C280.224 97.9036 280.634 96.7466 281.033 95.4199C281.831 92.7643 282.607 89.3434 283.103 85.567C284.087 78.0817 284.013 68.8672 280.49 61.4506L276.877 63.1668ZM280.155 60.6789C279.949 60.6343 279.702 60.5594 279.412 60.4462L277.955 64.1713C278.4 64.3452 278.854 64.4901 279.311 64.5887L280.155 60.6789ZM299.206 47.6464C297.327 53.0415 293.797 56.5697 290.088 58.6184C286.315 60.702 282.495 61.1846 280.156 60.6789L279.311 64.5887C282.792 65.3411 287.597 64.5634 292.022 62.1199C296.509 59.6416 300.749 55.3759 302.983 48.9619L299.206 47.6464ZM285.721 26.3143C290.905 28.0842 295.2 30.9004 297.717 34.4787C300.174 37.9703 301.055 42.3369 299.206 47.6462L302.983 48.962C305.247 42.4629 304.204 36.7456 300.989 32.1767C297.835 27.6944 292.709 24.4736 287.013 22.5288L285.721 26.3143ZM266.622 36.5346C268.274 33.5484 270.745 30.1321 273.969 27.9085C277.108 25.7428 280.965 24.6902 285.721 26.3142L287.013 22.5289C280.889 20.4374 275.723 21.8392 271.697 24.6159C267.756 27.3346 264.92 31.3485 263.122 34.5983L266.622 36.5346Z" fill="#FF6207" mask="url(#path-3-inside-1_1_448)"/>
<path d="M242.715 238.808L242.716 238.809C243.941 240.024 244.717 241.601 244.938 243.286H191.114L164.193 169.286H172.387L196.025 235.87L196.261 236.535H196.967H237.184C239.26 236.535 241.25 237.354 242.715 238.808Z" fill="url(#paint2_linear_1_448)" stroke="#FF6207" stroke-width="2"/>
<path d="M190.29 243.286H119.015L90.9286 169.286H163.367L190.29 243.286Z" fill="url(#paint3_linear_1_448)" stroke="#FF6207" stroke-width="2"/>
<path opacity="0.7" d="M108.693 110.379L96.3316 41.6554C96.1729 40.7678 95.7142 39.9695 95.0528 39.4309L108.693 110.379ZM108.693 110.379C108.851 111.256 108.705 112.152 108.284 112.884C107.863 113.615 107.2 114.125 106.432 114.308L108.693 110.379ZM94.4213 40.2063L94.4211 40.2061C93.9601 39.8305 93.4259 39.6875 92.9338 39.7586C53.9219 45.5211 18.8797 25.5977 5.37853 16.5857C5.02429 16.3496 4.63845 16.2401 4.26714 16.2493L4.26651 16.2493C3.89681 16.2582 3.5368 16.3854 3.22686 16.6258L3.22622 16.6263C2.91446 16.8677 2.65839 17.2206 2.50524 17.6571L94.4213 40.2063ZM94.4213 40.2063C94.8858 40.5846 95.228 41.1646 95.3472 41.8314L95.3474 41.8325M94.4213 40.2063L95.3474 41.8325M95.3474 41.8325L107.709 110.556L107.709 110.556M95.3474 41.8325L107.709 110.556M107.709 110.556C107.828 111.215 107.713 111.87 107.417 112.385C107.123 112.896 106.68 113.221 106.201 113.336L106.2 113.336M107.709 110.556L106.2 113.336M106.2 113.336C94.8316 116.047 51.4538 123.746 16.5123 94.2131C16.069 93.8355 15.7452 93.2713 15.6311 92.6275L15.6307 92.6248M106.2 113.336L15.6307 92.6248M15.6307 92.6248L2.40101 19.0758L2.40092 19.0753M15.6307 92.6248L2.40092 19.0753M2.40092 19.0753C2.31291 18.5875 2.3521 18.0944 2.50514 17.6574L2.40092 19.0753Z" stroke="#FF6207" stroke-width="2"/>
<path d="M14.0427 35.427C14.0427 35.427 24.6688 43.4817 37.898 47.2927L14.0427 35.427Z" fill="#FF6207"/>
<path d="M14.0427 35.427C14.0427 35.427 24.6688 43.4817 37.898 47.2927" stroke="#FF6207" stroke-width="7.4328" stroke-miterlimit="10" stroke-linecap="round"/>
<g opacity="0.4">
<path d="M16.183 47.321C16.183 47.321 31.0776 58.3087 48.2404 60.2965L16.183 47.321Z" fill="#FF6207"/>
<path d="M16.183 47.321C16.183 47.321 31.0776 58.3087 48.2404 60.2965" stroke="#FF6207" stroke-width="7.4328" stroke-miterlimit="10" stroke-linecap="round"/>
</g>
<path d="M21.8815 91.711L16.671 62.7439L27.391 68.3183L32.7274 97.9855L21.8815 91.711Z" fill="#FF6207"/>
<path d="M39.4634 100.484L35.7767 79.9878L45.7207 84.4257L49.3651 104.687L39.4634 100.484Z" fill="#FF6207"/>
<path d="M79.9592 109.524L76.2668 88.9959L67.1591 89.2068L70.8092 109.5L79.9592 109.524Z" fill="#FF6207"/>
<path d="M95.1347 108.087L88.6036 71.7778L79.7446 73.3713L86.233 109.443L95.1347 108.087Z" fill="#FF6207"/>
<path d="M55.478 106.89L53.7765 97.4304L63.1506 98.6999L65.0003 108.983L55.478 106.89Z" fill="#FF6207"/>
<path opacity="0.7" d="M348.509 191.343L348.51 191.343C349.047 190.905 349.675 190.735 350.259 190.819C393.743 197.242 432.812 175.033 447.871 164.981C448.285 164.705 448.739 164.576 449.178 164.586L449.179 164.586C449.617 164.597 450.042 164.748 450.407 165.031L450.408 165.031C450.775 165.315 451.073 165.728 451.251 166.235L348.509 191.343ZM348.509 191.343C347.968 191.784 347.573 192.457 347.435 193.226L347.435 193.227M348.509 191.343L347.435 193.227M347.435 193.227L333.642 269.908L333.642 269.908M347.435 193.227L333.642 269.908M333.642 269.908C333.505 270.669 333.636 271.428 333.981 272.027C334.324 272.623 334.844 273.007 335.412 273.143C348.105 276.169 396.556 284.772 435.588 251.781C436.104 251.341 436.478 250.687 436.61 249.944L436.61 249.942M333.642 269.908L436.61 249.942M436.61 249.942L451.372 167.877L451.372 167.876M436.61 249.942L451.372 167.876M451.372 167.876C451.473 167.313 451.428 166.742 451.251 166.235L451.372 167.876Z" fill="url(#paint4_linear_1_448)" stroke="#FF6207" stroke-width="2"/>
<path d="M438.268 186.101C438.268 186.101 426.411 195.088 411.65 199.34L438.268 186.101Z" fill="#FF6207"/>
<path d="M438.268 186.101C438.268 186.101 426.411 195.088 411.65 199.34" stroke="#FF6207" stroke-width="7.4328" stroke-miterlimit="10" stroke-linecap="round"/>
<g opacity="0.4">
<path d="M435.88 199.372C435.88 199.372 419.261 211.632 400.11 213.85L435.88 199.372Z" fill="#FF6207"/>
<path d="M435.88 199.372C435.88 199.372 419.261 211.632 400.11 213.85" stroke="#FF6207" stroke-width="7.4328" stroke-miterlimit="10" stroke-linecap="round"/>
</g>
<path d="M429.522 248.902L435.335 216.581L423.374 222.801L417.42 255.903L429.522 248.902Z" fill="#FF6207"/>
<path d="M409.904 258.69L414.017 235.821L402.922 240.773L398.856 263.38L409.904 258.69Z" fill="#FF6207"/>
<path d="M364.719 268.777L368.839 245.872L379.001 246.107L374.928 268.75L364.719 268.777Z" fill="#FF6207"/>
<path d="M347.786 267.173L355.074 226.66L364.958 228.438L357.719 268.687L347.786 267.173Z" fill="#FF6207"/>
<path d="M392.035 265.838L393.933 255.284L383.474 256.7L381.41 268.174L392.035 265.838Z" fill="#FF6207"/>
<path d="M45.4813 220.655L32.5647 218.11C32.391 218.075 32.2112 218.087 32.0439 218.145L21.8423 221.724C21.6686 221.783 21.482 221.792 21.3032 221.751C21.1244 221.711 20.9603 221.621 20.8291 221.493C20.6979 221.365 20.6046 221.203 20.5596 221.025C20.5145 220.848 20.5194 220.661 20.5738 220.486L27.2485 200.071C27.3029 199.898 27.4051 199.744 27.5434 199.627C27.6817 199.51 27.8503 199.434 28.0297 199.409C28.1869 199.386 28.3473 199.405 28.4948 199.464C28.6423 199.523 28.7716 199.62 28.8698 199.745L46.4104 219.039C46.5513 219.192 46.6397 219.386 46.6628 219.592C46.6859 219.799 46.6425 220.008 46.5389 220.188C46.4353 220.368 46.2768 220.511 46.0866 220.595C45.8964 220.679 45.6844 220.7 45.4813 220.655V220.655Z" stroke="#FF6207" stroke-width="2" stroke-linecap="round" stroke-linejoin="round"/>
<path d="M45.4821 220.655L32.5654 218.11C32.3918 218.075 32.212 218.087 32.0446 218.145L28.0305 199.409C28.1877 199.386 28.3481 199.405 28.4955 199.464C28.643 199.523 28.7723 199.62 28.8705 199.745L46.4111 219.039C46.552 219.192 46.6404 219.386 46.6635 219.592C46.6867 219.799 46.6432 220.008 46.5396 220.188C46.436 220.368 46.2776 220.511 46.0874 220.595C45.8972 220.679 45.6851 220.7 45.4821 220.655V220.655Z" stroke="#FF6207" stroke-width="2" stroke-linecap="round" stroke-linejoin="round"/>
<path d="M39.4034 120.786C32.0001 140.177 27.945 161.222 27.945 183.214C27.945 237.848 52.9702 286.637 92.1831 318.742M108.921 35.5535C136.097 18.2003 168.382 8.14307 203.016 8.14307C223.479 8.14307 243.121 11.6535 261.374 18.105M376.698 161.048C371.053 116.368 348.568 76.9356 315.803 49.3097" stroke="#FF6207" stroke-width="2" stroke-dasharray="15 15"/>
<defs>
<linearGradient id="paint0_linear_1_448" x1="303.306" y1="296.762" x2="303.306" y2="494" gradientUnits="userSpaceOnUse">
<stop stop-color="#FF6207" stop-opacity="0.65"/>
<stop offset="1" stop-color="#FF6207" stop-opacity="0"/>
</linearGradient>
<linearGradient id="paint1_linear_1_448" x1="184.219" y1="296.293" x2="109.216" y2="705.656" gradientUnits="userSpaceOnUse">
<stop stop-color="#FF6207" stop-opacity="0"/>
<stop offset="1" stop-color="#FF6207" stop-opacity="0.67"/>
</linearGradient>
<linearGradient id="paint2_linear_1_448" x1="204.384" y1="168.286" x2="204.384" y2="244.286" gradientUnits="userSpaceOnUse">
<stop stop-color="#FF6207"/>
<stop offset="1" stop-color="#FF6207" stop-opacity="0.15"/>
</linearGradient>
<linearGradient id="paint3_linear_1_448" x1="140.598" y1="168.286" x2="140.598" y2="244.286" gradientUnits="userSpaceOnUse">
<stop stop-color="#FF6207" stop-opacity="0.54"/>
<stop offset="1" stop-color="#FF6207" stop-opacity="0.15"/>
</linearGradient>
<linearGradient id="paint4_linear_1_448" x1="403.927" y1="155.406" x2="381.06" y2="282.533" gradientUnits="userSpaceOnUse">
<stop stop-color="#FF6207"/>
<stop offset="0.0625" stop-color="#FF6207" stop-opacity="0.69"/>
<stop offset="1" stop-color="#FF6207" stop-opacity="0"/>
</linearGradient>
</defs>
</svg>
