<svg width="570" height="131" viewBox="0 0 570 131" fill="none" xmlns="http://www.w3.org/2000/svg">
<g filter="url(#filter0_d_1_197)">
<path d="M25.6352 58.3123H51.2703C58.7472 58.3123 64.1591 60.0213 67.5059 63.4393C70.9239 66.7861 72.633 72.198 72.633 79.6749V82.8793C72.633 90.3562 70.9239 95.8037 67.5059 99.2217C64.1591 102.569 58.7472 104.242 51.2703 104.242H6.40879V29.4727H65.6901V44.4266H25.6352V58.3123ZM53.4066 79.6749C53.4066 75.4024 51.2703 73.2661 46.9978 73.2661H25.6352V89.2881H46.9978C51.2703 89.2881 53.4066 87.1518 53.4066 82.8793V79.6749ZM147.398 104.242H128.172V58.3123L102.536 104.242H82.242V29.4727H101.468V75.4024L127.103 29.4727H147.398V104.242ZM155.993 88.754C174.151 89.8222 186.969 90.3562 194.446 90.3562C196.084 90.3562 197.365 89.8934 198.291 88.9677C199.288 87.9707 199.787 86.6534 199.787 85.0156V80.743C199.787 76.4705 197.65 74.3343 193.378 74.3343H167.743V59.3804H191.241C195.514 59.3804 197.65 57.2441 197.65 52.9716V50.8354C197.65 46.5628 195.514 44.4266 191.241 44.4266H157.061V29.4727H196.582C203.561 29.4727 208.688 31.0749 211.963 34.2793C215.239 37.4125 216.877 42.2191 216.877 48.6991C216.877 52.9716 215.88 56.4609 213.886 59.1668C211.963 61.8015 209.4 63.6529 206.195 64.7211C211.963 66.2877 215.88 70.1329 217.945 76.2569C218.657 78.4644 219.013 81.0279 219.013 83.9474V85.0156C219.013 91.994 217.375 97.1211 214.099 100.397C210.824 103.672 205.697 105.31 198.718 105.31C186.827 105.31 172.585 104.598 155.993 103.174V88.754ZM293.745 104.242H274.518V73.8002H247.815V104.242H228.589V29.4727H247.815V58.8463H274.518V29.4727H293.745V104.242ZM365.894 104.242H306.612V29.4727H365.894V44.4266H325.839V58.8463H357.348V73.8002H325.839V89.2881H365.894V104.242ZM432.093 103.174C416.213 104.598 403.039 105.31 392.572 105.31C385.593 105.31 380.466 103.672 377.191 100.397C373.915 97.1211 372.277 91.994 372.277 85.0156V50.8354C372.277 43.3584 373.951 37.9466 377.298 34.5998C380.716 31.1817 386.163 29.4727 393.64 29.4727H432.093V44.4266H397.912C393.64 44.4266 391.504 46.5628 391.504 50.8354V85.0156C391.504 86.6534 391.967 87.9707 392.892 88.9677C393.889 89.8934 395.135 90.3562 396.631 90.3562C398.126 90.3562 399.764 90.3562 401.544 90.3562C403.324 90.285 405.176 90.2138 407.098 90.1426C409.021 90.0714 410.944 90.0002 412.866 89.929C414.86 89.8578 417.388 89.7154 420.45 89.5017C423.583 89.2881 427.464 89.0389 432.093 88.754V103.174Z" fill="white"/>
<path d="M475.955 29.5398H533.639V44.4998L509.07 104.34H487.706L513.343 44.4998H475.955V29.5398Z" fill="white"/>
<path d="M539.295 89.3798H494.115L500.524 74.4198L519.787 29.5398H540.226L521.355 74.4198L539.295 74.4198V58.3912H558.523V74.4198H566.001V89.3798H558.523V104.34H539.295V89.3798Z" fill="#FF6207"/>
<path d="M538.604 5.44324L545.536 34.2204L515.023 23.3339L538.604 5.44324Z" fill="#FF6207"/>
<path d="M523.126 21.2017L519.791 29.5392L538.61 31.6832L541.469 24.2985L523.126 21.2017Z" fill="#FF6207"/>
</g>
<defs>
<filter id="filter0_d_1_197" x="2.40879" y="5.44336" width="567.592" height="107.867" filterUnits="userSpaceOnUse" color-interpolation-filters="sRGB">
<feFlood flood-opacity="0" result="BackgroundImageFix"/>
<feColorMatrix in="SourceAlpha" type="matrix" values="0 0 0 0 0 0 0 0 0 0 0 0 0 0 0 0 0 0 127 0" result="hardAlpha"/>
<feOffset dy="4"/>
<feGaussianBlur stdDeviation="2"/>
<feComposite in2="hardAlpha" operator="out"/>
<feColorMatrix type="matrix" values="0 0 0 0 0 0 0 0 0 0 0 0 0 0 0 0 0 0 0.25 0"/>
<feBlend mode="normal" in2="BackgroundImageFix" result="effect1_dropShadow_1_197"/>
<feBlend mode="normal" in="SourceGraphic" in2="effect1_dropShadow_1_197" result="shape"/>
</filter>
</defs>
</svg>
