<svg width="169" height="38" viewBox="0 0 169 38" fill="none" xmlns="http://www.w3.org/2000/svg">
<g filter="url(#filter0_d_1_203)">
<path d="M10.3373 16.355H17.6746C19.8146 16.355 21.3636 16.8442 22.3215 17.8225C23.2998 18.7804 23.789 20.3294 23.789 22.4694V23.3866C23.789 25.5266 23.2998 27.0858 22.3215 28.0641C21.3636 29.022 19.8146 29.501 17.6746 29.501H4.83432V8.10055H21.8018V12.3806H10.3373V16.355ZM18.286 22.4694C18.286 21.2465 17.6746 20.6351 16.4517 20.6351H10.3373V25.2209H16.4517C17.6746 25.2209 18.286 24.6095 18.286 23.3866V22.4694ZM45.1882 29.501H39.6852V16.355L32.348 29.501H26.5393V8.10055H32.0422V21.2465L39.3795 8.10055H45.1882V29.501ZM47.6483 25.068C52.8456 25.3738 56.5142 25.5266 58.6542 25.5266C59.123 25.5266 59.4899 25.3941 59.7548 25.1292C60.0402 24.8438 60.1828 24.4668 60.1828 23.998V22.7751C60.1828 21.5522 59.5714 20.9408 58.3485 20.9408H51.0112V16.6607H57.7371C58.96 16.6607 59.5714 16.0493 59.5714 14.8264V14.215C59.5714 12.9921 58.96 12.3806 57.7371 12.3806H47.954V8.10055H59.2657C61.2631 8.10055 62.7305 8.55913 63.6681 9.47629C64.6056 10.3731 65.0744 11.7488 65.0744 13.6035C65.0744 14.8264 64.789 15.8251 64.2183 16.5996C63.6681 17.3537 62.9343 17.8836 62.0172 18.1893C63.6681 18.6377 64.789 19.7383 65.3801 21.4911C65.5839 22.1229 65.6858 22.8567 65.6858 23.6923V23.998C65.6858 25.9954 65.217 27.4628 64.2795 28.4004C63.3419 29.3379 61.8745 29.8067 59.8771 29.8067C56.4734 29.8067 52.3972 29.6029 47.6483 29.1953V25.068ZM87.0755 29.501H81.5725V20.7879H73.9295V29.501H68.4265V8.10055H73.9295V16.5079H81.5725V8.10055H87.0755V29.501ZM107.726 29.501H90.7585V8.10055H107.726V12.3806H96.2614V16.5079H105.28V20.7879H96.2614V25.2209H107.726V29.501ZM126.673 29.1953C122.128 29.6029 118.358 29.8067 115.362 29.8067C113.364 29.8067 111.897 29.3379 110.959 28.4004C110.022 27.4628 109.553 25.9954 109.553 23.998V14.215C109.553 12.0749 110.032 10.5259 110.99 9.56801C111.968 8.5897 113.527 8.10055 115.667 8.10055H126.673V12.3806H116.89C115.667 12.3806 115.056 12.9921 115.056 14.215V23.998C115.056 24.4668 115.189 24.8438 115.453 25.1292C115.739 25.3941 116.096 25.5266 116.524 25.5266C116.952 25.5266 117.42 25.5266 117.93 25.5266C118.439 25.5062 118.969 25.4858 119.52 25.4655C120.07 25.4451 120.62 25.4247 121.17 25.4043C121.741 25.3839 122.465 25.3432 123.341 25.282C124.238 25.2209 125.349 25.1496 126.673 25.068V29.1953Z" fill="white"/>
<path d="M139.226 8.45508H155.736V12.7369L148.704 29.8643H142.589L149.927 12.7369H139.226V8.45508Z" fill="white"/>
<path d="M157.355 25.5825H144.424L146.258 21.3006L151.771 8.45508H157.621L152.22 21.3006L157.355 21.3006V16.7129H162.859V21.3006H164.999V25.5825H162.859V29.8643H157.355V25.5825Z" fill="#FF6207"/>
<path d="M157.156 1.55796L159.14 9.79456L150.406 6.67863L157.156 1.55796Z" fill="#FF6207"/>
<path d="M152.726 6.06836L151.772 8.45474L157.158 9.06838L157.976 6.95473L152.726 6.06836Z" fill="#FF6207"/>
</g>
<defs>
<filter id="filter0_d_1_203" x="0.834351" y="1.55786" width="168.164" height="36.3064" filterUnits="userSpaceOnUse" color-interpolation-filters="sRGB">
<feFlood flood-opacity="0" result="BackgroundImageFix"/>
<feColorMatrix in="SourceAlpha" type="matrix" values="0 0 0 0 0 0 0 0 0 0 0 0 0 0 0 0 0 0 127 0" result="hardAlpha"/>
<feOffset dy="4"/>
<feGaussianBlur stdDeviation="2"/>
<feComposite in2="hardAlpha" operator="out"/>
<feColorMatrix type="matrix" values="0 0 0 0 0 0 0 0 0 0 0 0 0 0 0 0 0 0 0.25 0"/>
<feBlend mode="normal" in2="BackgroundImageFix" result="effect1_dropShadow_1_203"/>
<feBlend mode="normal" in="SourceGraphic" in2="effect1_dropShadow_1_203" result="shape"/>
</filter>
</defs>
</svg>
