<svg width="33" height="33" viewBox="0 0 33 33" fill="none" xmlns="http://www.w3.org/2000/svg">
<path d="M0 33L2.33238 24.5304C0.8904 22.0444 0.133954 19.2291 0.141834 16.351C0.141834 7.33246 7.51719 0 16.5709 0C20.9677 0 25.0967 1.70176 28.1934 4.79159C31.298 7.88142 33.0079 11.9907 33 16.3588C33 25.3774 25.6246 32.7098 16.563 32.7098H16.5551C13.8051 32.7098 11.1024 32.0197 8.69913 30.7179L0 33ZM9.11675 27.7614L9.61317 28.0594C11.7092 29.2985 14.1125 29.9494 16.563 29.9572H16.5709C24.096 29.9572 30.2263 23.8638 30.2263 16.3667C30.2263 12.7357 28.808 9.32438 26.2314 6.75214C23.6547 4.1799 20.2192 2.7683 16.5709 2.7683C9.04584 2.76046 2.91547 8.85385 2.91547 16.351C2.91547 18.9154 3.63252 21.4171 5.00358 23.5815L5.32664 24.0991L3.9477 29.1103L9.11675 27.7614Z" fill="white"/>
<path d="M0.574707 32.4278L2.82829 24.2484C1.43359 21.8565 0.700781 19.1353 0.700781 16.3591C0.708661 7.65427 7.82398 0.572754 16.5704 0.572754C20.8175 0.572754 24.7967 2.21962 27.791 5.19966C30.7853 8.17969 32.4321 12.1478 32.4321 16.367C32.4321 25.0718 25.3089 32.1533 16.5704 32.1533H16.5625C13.9071 32.1533 11.2989 31.4867 8.98229 30.232L0.574707 32.4278Z" fill="white"/>
<path d="M0 33L2.33238 24.5304C0.890401 22.0444 0.133954 19.2291 0.141834 16.351C0.141834 7.33246 7.51719 0 16.5709 0C20.9677 0 25.0967 1.70176 28.1934 4.79159C31.298 7.88142 33.0079 11.9907 33 16.3588C33 25.3774 25.6246 32.7098 16.563 32.7098H16.5551C13.8051 32.7098 11.1024 32.0197 8.69913 30.7179L0 33ZM9.11675 27.7614L9.61317 28.0594C11.7092 29.2985 14.1125 29.9494 16.563 29.9572H16.5709C24.096 29.9572 30.2263 23.8638 30.2263 16.3667C30.2263 12.7357 28.808 9.32438 26.2314 6.75214C23.6547 4.1799 20.2192 2.7683 16.5709 2.7683C9.04584 2.76046 2.91547 8.85385 2.91547 16.351C2.91547 18.9154 3.63252 21.4171 5.00358 23.5815L5.32664 24.0991L3.9477 29.1103L9.11675 27.7614Z" fill="white"/>
<path fill-rule="evenodd" clip-rule="evenodd" d="M12.4651 9.51271C12.1578 8.83044 11.8347 8.81476 11.5432 8.80691C11.3068 8.79907 11.031 8.79907 10.7552 8.79907C10.4794 8.79907 10.0381 8.90102 9.65993 9.30882C9.2817 9.71661 8.22583 10.7047 8.22583 12.7202C8.22583 14.7278 9.69932 16.6726 9.90419 16.9471C10.1091 17.2216 12.7487 21.4799 16.9171 23.1189C20.3841 24.4835 21.0933 24.209 21.8419 24.1384C22.5904 24.0678 24.2688 23.1503 24.6155 22.1936C24.9543 21.2368 24.9543 20.4212 24.8519 20.2487C24.7495 20.0762 24.4737 19.9742 24.0639 19.7703C23.6542 19.5664 21.637 18.5783 21.2588 18.4371C20.8805 18.3038 20.6048 18.2332 20.3369 18.641C20.0611 19.0488 19.2731 19.9664 19.0367 20.2408C18.8003 20.5153 18.5561 20.5467 18.1463 20.3428C17.7366 20.1389 16.4128 19.7076 14.8447 18.3117C13.6234 17.2294 12.796 15.8884 12.5596 15.4806C12.3232 15.0728 12.536 14.8533 12.7409 14.6494C12.9221 14.469 13.1506 14.171 13.3555 13.9357C13.5604 13.7005 13.6313 13.5279 13.7652 13.2534C13.8992 12.979 13.8361 12.7437 13.7337 12.5398C13.6313 12.3437 12.8275 10.3205 12.4651 9.51271Z" fill="#212121"/>
</svg>
