<svg width="41" height="41" viewBox="0 0 41 41" fill="none" xmlns="http://www.w3.org/2000/svg">
<path d="M5.125 17.0833C5.125 13.8621 5.125 12.2514 6.12572 11.2507C6.12572 11.2507 6.12572 11.2507 6.12572 11.2507C7.12644 10.25 8.73707 10.25 11.9583 10.25H29.0417C32.2629 10.25 33.8736 10.25 34.8743 11.2507C34.8743 11.2507 34.8743 11.2507 34.8743 11.2507C35.875 12.2514 35.875 13.8621 35.875 17.0833H5.125Z" fill="white"/>
<rect x="5.125" y="10.25" width="30.75" height="25.625" rx="3.41667" stroke="white" stroke-width="2.05"/>
<path d="M11.9583 5.125L11.9583 10.25" stroke="white" stroke-width="2.05" stroke-linecap="round"/>
<path d="M29.0417 5.125L29.0417 10.25" stroke="white" stroke-width="2.05" stroke-linecap="round"/>
<rect x="11.9583" y="20.5" width="6.83333" height="3.41667" rx="0.854167" fill="white"/>
<rect x="11.9583" y="27.3333" width="6.83333" height="3.41667" rx="0.854167" fill="white"/>
<rect x="22.2083" y="20.5" width="6.83333" height="3.41667" rx="0.854167" fill="white"/>
<rect x="22.2083" y="27.3333" width="6.83333" height="3.41667" rx="0.854167" fill="white"/>
</svg>
