<svg width="36" height="42" viewBox="0 0 36 42" fill="none" xmlns="http://www.w3.org/2000/svg">
<path fill-rule="evenodd" clip-rule="evenodd" d="M19.7181 30.4293C22.6957 28.3718 28.4999 23.3823 28.4999 15.75C28.4999 8.98451 23.7989 3.5 17.9999 3.5C12.2009 3.5 7.49994 8.98451 7.49994 15.75C7.49994 23.3823 13.3041 28.3718 16.2818 30.4293C17.3275 31.1519 18.6724 31.1519 19.7181 30.4293ZM17.9999 21.0002C20.4852 21.0002 22.4999 18.6497 22.4999 15.7502C22.4999 12.8507 20.4852 10.5002 17.9999 10.5002C15.5146 10.5002 13.4999 12.8507 13.4999 15.7502C13.4999 18.6497 15.5146 21.0002 17.9999 21.0002Z" fill="white"/>
<path d="M29.6914 30.6248C30.8763 31.4229 31.5001 32.3282 31.5001 33.2498C31.5001 34.1713 30.8763 35.0767 29.6914 35.8748C28.5065 36.6729 26.8023 37.3356 24.7501 37.7964C22.6978 38.2572 20.3698 38.4998 18.0001 38.4998C15.6303 38.4998 13.3023 38.2572 11.2501 37.7964C9.1978 37.3356 7.49359 36.6729 6.30872 35.8748C5.12385 35.0767 4.50006 34.1713 4.50006 33.2498C4.50006 32.3282 5.12385 31.4229 6.30872 30.6248" stroke="white" stroke-width="1.90244" stroke-linecap="round"/>
</svg>
