<svg width="552" height="576" viewBox="0 0 552 576" fill="none" xmlns="http://www.w3.org/2000/svg">
<path d="M207.178 497.902C234.875 509.306 265.216 515.595 297.027 515.595C346.104 515.595 391.685 500.625 429.451 475M131.632 448C87.9664 405.147 60.8799 345.46 60.8799 279.445C60.8799 256.557 64.1359 234.429 70.2101 213.5M157.678 88.7726C196.737 60.1777 244.91 43.2949 297.027 43.2949C427.449 43.2949 533.178 149.023 533.178 279.445C533.178 347.08 504.744 408.075 459.178 451.126" stroke="#FF6207" stroke-width="2" stroke-miterlimit="10"/>
<path d="M482.322 140.784C482.322 144.549 485.374 147.602 489.14 147.602C492.904 147.602 495.957 144.549 495.957 140.784C495.957 137.019 492.905 133.967 489.14 133.967C485.374 133.967 482.322 137.019 482.322 140.784Z" fill="#FF6207" stroke="#FF6207" stroke-width="3"/>
<path d="M54.0571 288.438C54.0571 292.203 57.1112 295.256 60.8796 295.256C64.6406 295.256 67.6955 292.204 67.6955 288.438C67.6955 284.673 64.6405 281.621 60.8796 281.621C57.1114 281.621 54.0571 284.674 54.0571 288.438Z" fill="#FF6207" stroke="#FF6207" stroke-width="3"/>
<path d="M280.524 515.595C280.524 519.36 283.576 522.412 287.341 522.412C291.106 522.412 294.159 519.36 294.159 515.595C294.159 511.83 291.106 508.777 287.341 508.777C283.576 508.777 280.524 511.83 280.524 515.595Z" fill="#FF6207" stroke="#FF6207" stroke-width="3"/>
<path d="M326.178 453.761C314.983 455.992 303.406 457.162 291.556 457.162C276.047 457.162 269.506 457.264 255.178 453.5M408.178 413.035C444.693 380.758 467.719 333.568 467.719 281C467.719 225.839 442.366 176.6 402.678 144.299M149.678 385.438C128.13 356.215 115.395 320.095 115.395 281C115.395 257.088 120.159 234.289 128.79 213.5M357.678 117.667C337.261 109.394 314.941 104.838 291.556 104.838C268.074 104.838 245.664 109.433 225.178 117.772M190.768 136.5C181.358 143.076 172.62 150.548 164.678 158.792" stroke="#FF6207" stroke-width="2" stroke-miterlimit="10"/>
<path d="M113.71 316.485C113.71 319.083 115.816 321.19 118.414 321.19C121.013 321.19 123.119 319.083 123.119 316.485C123.119 313.887 121.013 311.78 118.414 311.78C115.816 311.78 113.71 313.886 113.71 316.485Z" fill="#FF6207" stroke="#FF6207" stroke-width="3"/>
<path d="M450.239 347.202C450.239 349.801 452.345 351.907 454.944 351.907C457.542 351.907 459.648 349.801 459.648 347.202C459.648 344.604 457.542 342.498 454.944 342.498C452.345 342.498 450.239 344.604 450.239 347.202Z" fill="#FF6207" stroke="#FF6207" stroke-width="3"/>
<path d="M221.572 459.338L401.415 461.045C408.717 461.114 414.149 455.129 413.512 447.571L385.092 110.648C385.092 110.648 385.092 110.648 385.092 110.648C384.449 103.025 377.88 96.8049 370.497 96.7348L190.655 95.0287C183.353 94.9595 177.92 100.944 178.558 108.502L206.977 445.425C207.621 453.049 214.19 459.268 221.572 459.338Z" stroke="#FF6207" stroke-width="2"/>
<path d="M412.148 242.556C412.231 243.366 412.141 244.184 411.883 244.956C411.625 245.728 411.205 246.436 410.652 247.033C410.099 247.63 409.424 248.102 408.674 248.418L408.286 247.496C408.286 247.496 408.286 247.496 408.286 247.496M412.148 242.556L408.286 247.496M412.148 242.556L401.407 123.296L412.148 242.556ZM408.286 247.496C407.666 247.756 406.999 247.882 406.328 247.863L406.313 247.863L406.299 247.863L207.084 248.04C205.598 248.025 204.169 247.467 203.066 246.473C201.964 245.478 201.262 244.117 201.093 242.644L190.354 123.394L190.353 123.381C190.283 122.713 190.358 122.038 190.571 121.401L190.571 121.401C190.784 120.764 191.13 120.18 191.587 119.687L191.587 119.686C192.043 119.195 192.599 118.805 193.219 118.544C193.838 118.284 194.506 118.159 195.178 118.177L195.192 118.177L195.206 118.177L394.421 118C395.907 118.015 397.336 118.572 398.439 119.568L398.439 119.568C399.542 120.562 400.243 121.923 400.412 123.397L411.152 242.645L411.153 242.658L411.153 242.658C411.222 243.327 411.147 244.002 410.934 244.639C410.721 245.277 410.375 245.861 409.919 246.353L409.918 246.353C409.462 246.846 408.905 247.235 408.286 247.496Z" fill="url(#paint0_linear_1_363)" stroke="#FF6207" stroke-width="2"/>
<path d="M200.331 262.116C200.902 261.869 201.518 261.748 202.139 261.761L200.331 262.116ZM200.331 262.116C199.761 262.362 199.251 262.729 198.834 263.189C198.417 263.65 198.105 264.195 197.917 264.787L200.331 262.116ZM297.51 376.841H297.5H213.308C212.227 376.817 211.191 376.403 210.393 375.674L210.393 375.674C209.594 374.945 209.086 373.951 208.964 372.877L198.741 266.525L198.74 266.513L198.738 266.5C198.681 266.027 198.726 265.546 198.87 265.089L297.51 376.841ZM297.51 376.841L297.52 376.841M297.51 376.841L297.52 376.841M297.52 376.841C297.997 376.851 298.472 376.757 298.912 376.567C299.35 376.378 299.742 376.097 300.063 375.742C300.384 375.387 300.625 374.968 300.769 374.512L300.769 374.511M297.52 376.841L300.769 374.511M300.769 374.511C300.914 374.057 300.959 373.575 300.901 373.1L300.9 373.088M300.769 374.511L300.9 373.088M300.9 373.088L300.899 373.076M300.9 373.088L300.899 373.076M300.899 373.076L290.675 266.725C290.553 265.65 290.046 264.656 289.247 263.927C288.448 263.198 287.413 262.784 286.332 262.761H202.139H202.129M300.899 373.076L202.129 262.761M202.129 262.761L202.119 262.76M202.129 262.761L202.119 262.76M202.119 262.76C201.641 262.751 201.167 262.844 200.729 263.034L200.728 263.034M202.119 262.76L200.728 263.034M200.728 263.034C200.29 263.224 199.897 263.505 199.576 263.86M200.728 263.034L199.576 263.86M199.576 263.86C199.255 264.215 199.015 264.634 198.87 265.089L199.576 263.86Z" fill="url(#paint1_linear_1_363)" stroke="#FF6207" stroke-width="2"/>
<path d="M233.372 319.168C223.875 310.118 222.842 295.788 231.063 287.163C239.285 278.537 253.647 278.881 263.143 287.931C272.639 296.982 273.673 311.311 265.451 319.937C257.23 328.563 242.868 328.219 233.372 319.168Z" stroke="#FF6207" stroke-width="3" stroke-miterlimit="10"/>
<path d="M258.932 324.471C266.809 321.069 271.802 312.983 270.895 303.549C269.694 291.046 258.584 280.911 246.081 280.911" stroke="#FF6207" stroke-width="3" stroke-miterlimit="10" stroke-linecap="round"/>
<path d="M260.801 343.931H243.478H260.801Z" fill="url(#paint2_linear_1_363)"/>
<path d="M260.801 343.931H243.478" stroke="#FF6207" stroke-width="3" stroke-miterlimit="10" stroke-linecap="round"/>
<path d="M262.687 363.55H245.364H262.687Z" fill="url(#paint3_linear_1_363)"/>
<path d="M262.687 363.55H245.364" stroke="#FF6207" stroke-width="3" stroke-miterlimit="10" stroke-linecap="round"/>
<g opacity="0.4">
<path d="M270.973 353.63H235.172H270.973Z" fill="url(#paint4_linear_1_363)"/>
<path d="M270.973 353.63H235.172" stroke="#FF6207" stroke-width="3" stroke-miterlimit="10" stroke-linecap="round"/>
</g>
<path d="M303.307 262.116C303.877 261.869 304.493 261.748 305.114 261.761L303.307 262.116ZM303.307 262.116C302.736 262.362 302.226 262.729 301.809 263.189C301.393 263.65 301.08 264.195 300.892 264.787L303.307 262.116ZM400.486 376.841H400.476H316.283C315.202 376.817 314.167 376.403 313.369 375.674L313.368 375.674C312.569 374.945 312.062 373.951 311.94 372.877L301.716 266.525L301.715 266.513L301.714 266.5C301.656 266.027 301.701 265.546 301.845 265.089L400.486 376.841ZM400.486 376.841L400.496 376.841M400.486 376.841L400.496 376.841M400.496 376.841C400.973 376.851 401.447 376.757 401.887 376.568C402.325 376.378 402.718 376.097 403.039 375.742C403.359 375.387 403.6 374.968 403.744 374.512L403.744 374.511M400.496 376.841L403.744 374.511M403.744 374.511C403.889 374.057 403.934 373.575 403.876 373.1L403.875 373.088M403.744 374.511L403.875 373.088M403.875 373.088L403.874 373.076M403.875 373.088L403.874 373.076M403.874 373.076L393.651 266.725C393.529 265.65 393.021 264.656 392.222 263.927C391.423 263.198 390.388 262.784 389.307 262.761H305.114H305.104M403.874 373.076L305.104 262.761M305.104 262.761L305.094 262.76M305.104 262.761L305.094 262.76M305.094 262.76C304.616 262.751 304.142 262.844 303.704 263.034L303.703 263.034M305.094 262.76L303.703 263.034M303.703 263.034C303.265 263.224 302.872 263.505 302.551 263.86M303.703 263.034L302.551 263.86M302.551 263.86C302.23 264.215 301.99 264.634 301.846 265.089L302.551 263.86Z" fill="url(#paint5_linear_1_363)" stroke="#FF6207" stroke-width="2"/>
<path d="M336.347 319.168C326.851 310.118 325.818 295.788 334.039 287.163C342.26 278.537 356.623 278.881 366.119 287.931C375.614 296.982 376.648 311.311 368.426 319.937C360.205 328.563 345.842 328.219 336.347 319.168Z" stroke="#FF6207" stroke-width="3" stroke-miterlimit="10"/>
<path d="M328.595 303.549C329.796 316.052 340.906 326.187 353.409 326.187C365.912 326.187 375.073 316.052 373.871 303.549C372.669 291.046 361.559 280.911 349.057 280.911" stroke="#FF6207" stroke-width="3" stroke-miterlimit="10" stroke-linecap="round"/>
<path d="M363.776 343.931H346.453H363.776Z" fill="url(#paint6_linear_1_363)"/>
<path d="M363.776 343.931H346.453" stroke="#FF6207" stroke-width="3" stroke-miterlimit="10" stroke-linecap="round"/>
<path d="M365.663 363.55H348.339H365.663Z" fill="url(#paint7_linear_1_363)"/>
<path d="M365.663 363.55H348.339" stroke="#FF6207" stroke-width="3" stroke-miterlimit="10" stroke-linecap="round"/>
<g opacity="0.4">
<path d="M373.947 353.63H338.146H373.947Z" fill="url(#paint8_linear_1_363)"/>
<path d="M373.947 353.63H338.146" stroke="#FF6207" stroke-width="3" stroke-miterlimit="10" stroke-linecap="round"/>
</g>
<path d="M408.052 452.915H408.042H220.366C219.355 452.892 218.386 452.505 217.639 451.822L217.638 451.822C216.891 451.14 216.416 450.21 216.301 449.204C216.301 449.201 216.3 449.199 216.3 449.196L210.701 390.951L210.7 390.939L210.699 390.927C210.645 390.484 210.687 390.035 210.822 389.609C210.957 389.185 211.181 388.794 211.48 388.464C211.778 388.134 212.144 387.871 212.553 387.694C212.963 387.517 213.405 387.43 213.85 387.439L213.86 387.439H213.87H401.545C402.557 387.462 403.526 387.849 404.273 388.531C405.021 389.213 405.496 390.144 405.611 391.15L411.211 449.403L411.212 449.415L411.214 449.427C411.267 449.87 411.225 450.319 411.091 450.743C410.956 451.168 410.731 451.559 410.433 451.889L408.052 452.915ZM408.052 452.915L408.061 452.915M408.052 452.915L408.061 452.915M408.061 452.915C408.508 452.923 408.95 452.836 409.358 452.66L409.358 452.66M408.061 452.915L409.358 452.66M409.358 452.66C409.767 452.483 410.133 452.22 410.433 451.89L409.358 452.66Z" fill="url(#paint9_linear_1_363)" stroke="#FF6207" stroke-width="2"/>
<path d="M394.973 440.406L392.325 412.862L394.973 440.406Z" fill="url(#paint10_linear_1_363)"/>
<path d="M394.973 440.406L392.325 412.862" stroke="#FF6207" stroke-width="3" stroke-miterlimit="10" stroke-linecap="round"/>
<path d="M375.545 421.111L377.4 440.406L375.545 421.111Z" fill="url(#paint11_linear_1_363)"/>
<path d="M375.545 421.111L377.4 440.406" stroke="#FF6207" stroke-width="3" stroke-miterlimit="10" stroke-linecap="round"/>
<path d="M358.607 427.701L359.828 440.406L358.607 427.701Z" fill="url(#paint12_linear_1_363)"/>
<path d="M358.607 427.701L359.828 440.406" stroke="#FF6207" stroke-width="3" stroke-miterlimit="10" stroke-linecap="round"/>
<path d="M338.921 405.705L342.257 440.406L338.921 405.705Z" fill="url(#paint13_linear_1_363)"/>
<path d="M338.921 405.705L342.257 440.406" stroke="#FF6207" stroke-width="3" stroke-miterlimit="10" stroke-linecap="round"/>
<path d="M323.463 427.701L324.685 440.406L323.463 427.701Z" fill="url(#paint14_linear_1_363)"/>
<path d="M323.463 427.701L324.685 440.406" stroke="#FF6207" stroke-width="3" stroke-miterlimit="10" stroke-linecap="round"/>
<path d="M303.923 407.237L307.112 440.405L303.923 407.237Z" fill="url(#paint15_linear_1_363)"/>
<path d="M303.923 407.237L307.112 440.405" stroke="#FF6207" stroke-width="3" stroke-miterlimit="10" stroke-linecap="round"/>
<path d="M288.216 426.634L289.54 440.405L288.216 426.634Z" fill="url(#paint16_linear_1_363)"/>
<path d="M288.216 426.634L289.54 440.405" stroke="#FF6207" stroke-width="3" stroke-miterlimit="10" stroke-linecap="round"/>
<path d="M271.263 433.069L271.968 440.406L271.263 433.069Z" fill="url(#paint17_linear_1_363)"/>
<path d="M271.263 433.069L271.968 440.406" stroke="#FF6207" stroke-width="3" stroke-miterlimit="10" stroke-linecap="round"/>
<path d="M251.749 412.862L254.397 440.406L251.749 412.862Z" fill="url(#paint18_linear_1_363)"/>
<path d="M251.749 412.862L254.397 440.406" stroke="#FF6207" stroke-width="3" stroke-miterlimit="10" stroke-linecap="round"/>
<path d="M233.168 402.375L236.824 440.406L233.168 402.375Z" fill="url(#paint19_linear_1_363)"/>
<path d="M233.168 402.375L236.824 440.406" stroke="#FF6207" stroke-width="3" stroke-miterlimit="10" stroke-linecap="round"/>
<path d="M391.178 190.779C391.178 190.779 373.295 187.162 368.482 195.554C363.669 203.945 359.519 219.703 346.714 217.672C333.909 215.64 324.107 174.44 311.519 174.816C298.93 175.192 303.368 202.176 289.666 202.552C275.964 202.929 278.401 187.48 269.268 187.91C258.19 188.432 262.32 220.445 247.876 220.822C233.431 221.199 231.074 178.537 209.238 179.285" stroke="#FF6207" stroke-width="5" stroke-miterlimit="10" stroke-linecap="round"/>
<path d="M381.006 140L345.956 140.031L381.006 140Z" fill="url(#paint20_linear_1_363)"/>
<path d="M381.006 140L345.956 140.031" stroke="#FF6207" stroke-width="3" stroke-miterlimit="10" stroke-linecap="round"/>
<g opacity="0.4">
<path d="M382.453 156.067L310.02 156.132L382.453 156.067Z" fill="url(#paint21_linear_1_363)"/>
<path d="M382.453 156.067L310.02 156.132" stroke="#FF6207" stroke-width="3" stroke-miterlimit="10" stroke-linecap="round"/>
</g>
<path d="M33.8227 212.565H153.264C161.67 212.565 167.862 205.779 167.117 197.362L151.092 16.3789C150.34 7.89507 142.83 1 134.354 1H14.9128C6.50366 1 0.316071 7.78619 1.06137 16.2025L17.0875 197.186C17.8388 205.67 25.35 212.565 33.8227 212.565Z" fill="url(#paint22_linear_1_363)" stroke="#FF6207" stroke-width="2"/>
<path d="M51.9587 101.109L51.9588 101.11C70.3631 118.719 98.1637 119.199 114.068 102.575L115.152 103.612L114.068 102.575C129.972 85.9509 128.263 58.1991 109.857 40.5893C91.4499 22.9795 63.65 22.5003 47.7458 39.124C31.8434 55.7479 33.5487 83.4997 51.9587 101.109Z" fill="url(#paint23_linear_1_363)" stroke="#FF6207" stroke-width="3"/>
<path d="M71.5396 76.4641L41.5611 87.8681C42.6318 89.9695 44.3145 92.3324 45.9077 94.3551C46.8683 95.5746 47.7677 96.6349 48.4268 97.3903C48.4521 97.4193 48.4771 97.4478 48.5017 97.4759L71.5396 76.4641Z" fill="url(#paint24_linear_1_363)" stroke="#FF6207" stroke-width="3"/>
<path d="M38.5561 92.7098C38.454 92.3773 38.3408 91.9993 38.2191 91.5786C37.691 89.7545 37.0037 87.1332 36.3719 83.9616C35.1059 77.6065 34.0748 69.0987 34.9624 60.3882C35.8497 51.6807 38.6437 42.8602 44.9449 35.7535C51.0174 28.9048 60.4758 23.5022 75.0234 21.4225L79.1457 67.9765L79.147 67.9911L79.1486 68.0056C79.2119 68.5903 79.1026 69.1812 78.8338 69.7057L38.5561 92.7098ZM38.5561 92.7098L77.6362 70.9532C77.6377 70.9524 77.6391 70.9515 77.6406 70.9507C78.1513 70.6602 78.566 70.2276 78.8336 69.7061L38.5561 92.7098Z" fill="url(#paint25_linear_1_363)" stroke="#FF6207" stroke-width="3"/>
<path d="M140.057 149.508H90.5748H140.057Z" fill="url(#paint26_linear_1_363)"/>
<path d="M140.057 149.508H90.5748" stroke="#FF6207" stroke-width="3" stroke-miterlimit="10" stroke-linecap="round"/>
<path d="M143.678 190.417H94.1958H143.678Z" fill="url(#paint27_linear_1_363)"/>
<path d="M143.678 190.417H94.1958" stroke="#FF6207" stroke-width="3" stroke-miterlimit="10" stroke-linecap="round"/>
<g opacity="0.4">
<path d="M141.848 169.731H39.591H141.848Z" fill="url(#paint28_linear_1_363)"/>
<path d="M141.848 169.731H39.591" stroke="#FF6207" stroke-width="3" stroke-miterlimit="10" stroke-linecap="round"/>
</g>
<path d="M243.243 361.143C242.597 362.204 241.739 363.121 240.722 363.835C239.705 364.549 238.552 365.045 237.334 365.292" fill="url(#paint29_linear_1_363)"/>
<path d="M243.243 361.143C242.597 362.204 241.739 363.121 240.722 363.835C239.705 364.549 238.552 365.045 237.334 365.292" stroke="#FF6207" stroke-width="3" stroke-linecap="round"/>
<path d="M204.236 370.487L196.376 387.8L204.236 370.487Z" fill="url(#paint30_linear_1_363)"/>
<path d="M204.236 370.487L196.376 387.8" stroke="#FF6207" stroke-width="3" stroke-linecap="round"/>
<path d="M185.137 376.135C181.143 381.861 179.003 388.675 179.005 395.657L185.137 376.135Z" fill="url(#paint31_linear_1_363)"/>
<path d="M185.137 376.135C181.143 381.861 179.003 388.675 179.005 395.657" stroke="#FF6207" stroke-width="3" stroke-linecap="round"/>
<path d="M163.615 381.823C163.615 381.823 159.659 390.897 159.332 398.072L163.615 381.823Z" fill="url(#paint32_linear_1_363)"/>
<path d="M163.615 381.823C163.615 381.823 159.659 390.897 159.332 398.072" stroke="#FF6207" stroke-width="3" stroke-linecap="round"/>
<path d="M145.991 388.339C144.432 392.168 143.828 396.318 144.23 400.433L145.991 388.339Z" fill="url(#paint33_linear_1_363)"/>
<path d="M145.991 388.339C144.432 392.168 143.828 396.318 144.23 400.433" stroke="#FF6207" stroke-width="3" stroke-linecap="round"/>
<path d="M547.876 516.999H547.888L547.9 517C548.18 517.006 548.468 516.938 548.746 516.787L549.223 517.661L548.746 516.787C549.027 516.634 549.297 516.396 549.529 516.072L549.529 516.071C549.761 515.748 549.944 515.352 550.056 514.907L550.056 514.906C550.168 514.462 550.204 513.989 550.159 513.521L550.158 513.511L550.157 513.501L545.748 455.657C545.654 454.603 545.261 453.663 544.685 453C544.115 452.345 543.425 452.021 542.756 452.001H430.479H430.467L430.454 452.001C430.175 451.993 429.889 452.061 429.61 452.213L429.609 452.214C429.329 452.366 429.059 452.603 428.827 452.927C428.595 453.251 428.411 453.647 428.299 454.092C428.187 454.537 428.152 455.011 428.197 455.479L428.198 455.489L428.198 455.499L432.607 513.336C432.607 513.338 432.607 513.34 432.607 513.342C432.702 514.397 433.095 515.336 433.671 515.999L433.671 515.999C434.24 516.654 434.931 516.979 435.6 516.999H547.876Z" fill="url(#paint34_linear_1_363)" stroke="#FF6207" stroke-width="2"/>
<path d="M533.596 466.194H445.576H533.596Z" fill="url(#paint35_linear_1_363)"/>
<path d="M533.596 466.194H445.576" stroke="#FF6207" stroke-width="3" stroke-miterlimit="10" stroke-linecap="round"/>
<path d="M533.596 466.194H472.43H533.596Z" fill="url(#paint36_linear_1_363)"/>
<path d="M533.596 466.194H472.43" stroke="#FF6207" stroke-width="3" stroke-miterlimit="10" stroke-linecap="round"/>
<path d="M534.912 484.738H446.892H534.912Z" fill="url(#paint37_linear_1_363)"/>
<path d="M534.912 484.738H446.892" stroke="#FF6207" stroke-width="3" stroke-miterlimit="10" stroke-linecap="round"/>
<path d="M537.791 503.282H449.771H537.791Z" fill="url(#paint38_linear_1_363)"/>
<path d="M537.791 503.282H449.771" stroke="#FF6207" stroke-width="3" stroke-miterlimit="10" stroke-linecap="round"/>
<mask id="path-83-inside-1_1_363" fill="white">
<path fill-rule="evenodd" clip-rule="evenodd" d="M182.893 377.035C188.06 371.471 195.991 370.87 201.408 371.251L230.646 304.041C231.462 302.164 232.936 300.651 234.791 299.786C236.646 298.921 238.752 298.764 240.715 299.344C243.112 300.053 245.343 301.237 247.275 302.825C249.206 304.412 250.799 306.372 251.959 308.587C253.119 310.801 253.823 313.227 254.029 315.718C254.234 318.21 253.937 320.718 253.155 323.093L230.431 392.101L230.799 392.419C229.067 397.679 227.827 403.54 226.937 409.619C227.382 411.266 229.251 416.576 234.852 416.576C239.176 416.576 257.921 410.913 270.432 406.976C273.836 405.905 277.488 405.905 280.892 406.976C284.296 408.047 287.289 410.138 289.466 412.966L290.226 413.953C290.604 414.442 290.878 415.003 291.033 415.603C291.188 416.201 291.219 416.825 291.125 417.436C291.032 418.047 290.815 418.633 290.488 419.157C290.162 419.683 289.732 420.136 289.225 420.489C278.633 427.884 250.03 447.954 246.372 451.612C241.892 456.091 217.052 481.099 216.802 481.351C210.47 491.837 202.164 505.185 202.164 505.185L192.619 527.253L192.201 527.302C192.554 551.242 184.766 571.95 184.766 571.95C173.172 587.837 101.464 549.618 105.758 538.883C119.74 503.933 129.178 500.159 129.178 500.159C129.258 500.26 129.338 500.36 129.419 500.46L131.446 491.328C132.962 486.974 133.277 482.293 132.358 477.776C128.681 459.714 125.544 409.311 129.243 400.593C130.462 397.539 132.468 394.861 135.058 392.835C137.648 390.808 140.728 389.503 143.986 389.054C147.904 383.536 161.431 382.752 161.431 382.752C167.635 374.264 182.893 377.035 182.893 377.035Z"/>
</mask>
<path fill-rule="evenodd" clip-rule="evenodd" d="M182.893 377.035C188.06 371.471 195.991 370.87 201.408 371.251L230.646 304.041C231.462 302.164 232.936 300.651 234.791 299.786C236.646 298.921 238.752 298.764 240.715 299.344C243.112 300.053 245.343 301.237 247.275 302.825C249.206 304.412 250.799 306.372 251.959 308.587C253.119 310.801 253.823 313.227 254.029 315.718C254.234 318.21 253.937 320.718 253.155 323.093L230.431 392.101L230.799 392.419C229.067 397.679 227.827 403.54 226.937 409.619C227.382 411.266 229.251 416.576 234.852 416.576C239.176 416.576 257.921 410.913 270.432 406.976C273.836 405.905 277.488 405.905 280.892 406.976C284.296 408.047 287.289 410.138 289.466 412.966L290.226 413.953C290.604 414.442 290.878 415.003 291.033 415.603C291.188 416.201 291.219 416.825 291.125 417.436C291.032 418.047 290.815 418.633 290.488 419.157C290.162 419.683 289.732 420.136 289.225 420.489C278.633 427.884 250.03 447.954 246.372 451.612C241.892 456.091 217.052 481.099 216.802 481.351C210.47 491.837 202.164 505.185 202.164 505.185L192.619 527.253L192.201 527.302C192.554 551.242 184.766 571.95 184.766 571.95C173.172 587.837 101.464 549.618 105.758 538.883C119.74 503.933 129.178 500.159 129.178 500.159C129.258 500.26 129.338 500.36 129.419 500.46L131.446 491.328C132.962 486.974 133.277 482.293 132.358 477.776C128.681 459.714 125.544 409.311 129.243 400.593C130.462 397.539 132.468 394.861 135.058 392.835C137.648 390.808 140.728 389.503 143.986 389.054C147.904 383.536 161.431 382.752 161.431 382.752C167.635 374.264 182.893 377.035 182.893 377.035Z" fill="url(#paint39_linear_1_363)"/>
<path d="M201.408 371.251L204.159 372.448L203.313 374.393L201.197 374.244L201.408 371.251ZM182.893 377.035L185.091 379.076L183.974 380.28L182.357 379.986L182.893 377.035ZM230.646 304.041L233.397 305.237L233.397 305.238L230.646 304.041ZM234.791 299.786L233.523 297.067L233.523 297.067L234.791 299.786ZM240.715 299.344L241.565 296.467L241.566 296.467L240.715 299.344ZM247.275 302.825L249.179 300.507L249.18 300.507L247.275 302.825ZM251.959 308.587L249.302 309.979L249.302 309.979L251.959 308.587ZM254.029 315.718L257.019 315.471L257.019 315.472L254.029 315.718ZM253.155 323.093L256.005 324.031L256.005 324.031L253.155 323.093ZM230.431 392.101L228.47 394.372L226.955 393.064L227.581 391.163L230.431 392.101ZM230.799 392.419L232.76 390.149L234.274 391.457L233.648 393.358L230.799 392.419ZM226.937 409.619L224.041 410.402L223.878 409.8L223.968 409.184L226.937 409.619ZM234.852 416.576V419.576H234.851L234.852 416.576ZM270.432 406.976L269.532 404.114H269.532L270.432 406.976ZM280.892 406.976L279.991 409.837H279.991L280.892 406.976ZM289.466 412.966L287.089 414.796L287.089 414.796L289.466 412.966ZM290.226 413.953L287.852 415.787L287.849 415.783L290.226 413.953ZM291.033 415.603L288.128 416.353L288.128 416.353L291.033 415.603ZM291.125 417.436L294.091 417.889L291.125 417.436ZM290.488 419.157L287.94 417.574L287.941 417.572L290.488 419.157ZM289.225 420.489L287.508 418.03L287.509 418.029L289.225 420.489ZM246.372 451.612L248.493 453.734L248.493 453.734L246.372 451.612ZM216.802 481.351L214.234 479.8L214.42 479.492L214.674 479.237L216.802 481.351ZM202.164 505.185L199.411 503.994L199.499 503.79L199.617 503.6L202.164 505.185ZM192.619 527.253L195.373 528.444L194.686 530.032L192.969 530.233L192.619 527.253ZM192.201 527.302L189.201 527.347L189.161 524.638L191.851 524.323L192.201 527.302ZM184.766 571.95L187.574 573.006L187.431 573.388L187.19 573.718L184.766 571.95ZM105.758 538.883L102.973 537.768L102.973 537.768L105.758 538.883ZM129.178 500.159L128.064 497.374L130.133 496.546L131.523 498.288L129.178 500.159ZM129.419 500.46L132.348 501.11L130.998 507.193L127.084 502.344L129.419 500.46ZM131.446 491.328L128.517 490.678L128.555 490.507L128.613 490.341L131.446 491.328ZM132.358 477.776L135.298 477.177L135.298 477.177L132.358 477.776ZM129.243 400.593L132.029 401.705L132.017 401.735L132.005 401.765L129.243 400.593ZM135.058 392.835L136.907 395.197L136.907 395.197L135.058 392.835ZM143.986 389.054L146.432 390.79L145.681 391.848L144.396 392.025L143.986 389.054ZM161.431 382.752L163.853 384.523L163.018 385.666L161.605 385.747L161.431 382.752ZM201.197 374.244C195.984 373.876 189.283 374.563 185.091 379.076L180.695 374.993C186.837 368.379 195.999 367.863 201.618 368.258L201.197 374.244ZM233.397 305.238L204.159 372.448L198.657 370.054L227.895 302.844L233.397 305.238ZM236.059 302.505C234.868 303.061 233.921 304.032 233.397 305.237L227.895 302.845C229.003 300.296 231.005 298.242 233.523 297.067L236.059 302.505ZM239.865 302.221C238.603 301.848 237.25 301.949 236.059 302.505L233.523 297.067C236.041 295.892 238.901 295.68 241.565 296.467L239.865 302.221ZM245.37 305.143C243.748 303.81 241.876 302.816 239.864 302.221L241.566 296.467C244.349 297.291 246.938 298.665 249.179 300.507L245.37 305.143ZM249.302 309.979C248.328 308.119 246.991 306.475 245.37 305.142L249.18 300.507C251.421 302.35 253.27 304.624 254.617 307.195L249.302 309.979ZM251.039 315.965C250.866 313.873 250.276 311.837 249.302 309.979L254.617 307.194C255.963 309.764 256.78 312.58 257.019 315.471L251.039 315.965ZM250.305 322.155C250.962 320.161 251.211 318.056 251.039 315.964L257.019 315.472C257.257 318.364 256.912 321.275 256.005 324.031L250.305 322.155ZM227.581 391.163L250.306 322.155L256.005 324.031L233.28 393.04L227.581 391.163ZM228.838 394.69L228.47 394.372L232.392 389.831L232.76 390.149L228.838 394.69ZM223.968 409.184C224.875 402.994 226.147 396.954 227.949 391.481L233.648 393.358C231.987 398.405 230.779 404.085 229.905 410.054L223.968 409.184ZM234.851 419.576C230.943 419.576 228.273 417.664 226.615 415.586C225.026 413.593 224.312 411.405 224.041 410.402L229.833 408.836C230.007 409.479 230.449 410.77 231.306 411.844C232.094 412.832 233.16 413.576 234.852 413.576L234.851 419.576ZM271.333 409.837C265.067 411.809 257.218 414.22 250.383 416.141C246.968 417.1 243.778 417.945 241.152 418.553C238.641 419.134 236.33 419.576 234.852 419.576V413.576C235.536 413.576 237.189 413.311 239.8 412.707C242.296 412.13 245.385 411.313 248.76 410.364C255.506 408.469 263.286 406.08 269.532 404.114L271.333 409.837ZM279.991 409.837C277.173 408.951 274.151 408.951 271.333 409.837L269.532 404.114C273.522 402.858 277.802 402.858 281.792 404.114L279.991 409.837ZM287.089 414.796C285.287 412.455 282.809 410.724 279.991 409.837L281.792 404.114C285.783 405.37 289.291 407.821 291.843 411.135L287.089 414.796ZM287.849 415.783L287.089 414.796L291.843 411.135L292.603 412.123L287.849 415.783ZM288.128 416.353C288.074 416.145 287.98 415.953 287.852 415.787L292.6 412.119C293.228 412.932 293.682 413.862 293.938 414.852L288.128 416.353ZM288.16 416.982C288.192 416.77 288.181 416.557 288.128 416.353L293.937 414.852C294.194 415.845 294.245 416.879 294.091 417.889L288.16 416.982ZM287.941 417.572C288.053 417.393 288.127 417.192 288.16 416.982L294.091 417.889C293.936 418.902 293.577 419.872 293.035 420.742L287.941 417.572ZM287.509 418.029C287.682 417.908 287.829 417.753 287.94 417.574L293.036 420.741C292.495 421.613 291.781 422.364 290.941 422.95L287.509 418.029ZM244.251 449.491C245.353 448.389 248.032 446.304 251.326 443.843C254.711 441.314 258.979 438.217 263.451 435.013C272.398 428.603 282.209 421.729 287.508 418.03L290.942 422.949C285.649 426.644 275.862 433.502 266.945 439.891C262.486 443.086 258.255 446.155 254.917 448.649C251.489 451.211 249.22 453.007 248.493 453.734L244.251 449.491ZM214.674 479.237C214.92 478.988 239.766 453.975 244.251 449.491L248.493 453.734C244.018 458.208 219.184 483.21 218.931 483.465L214.674 479.237ZM202.164 505.185C199.617 503.6 199.617 503.6 199.617 503.6C199.617 503.6 199.617 503.6 199.617 503.6C199.617 503.599 199.618 503.599 199.618 503.598C199.619 503.596 199.621 503.594 199.623 503.591C199.627 503.584 199.633 503.575 199.641 503.562C199.656 503.537 199.68 503.499 199.711 503.449C199.773 503.349 199.866 503.2 199.985 503.008C200.224 502.623 200.573 502.061 201.011 501.355C201.888 499.941 203.123 497.946 204.556 495.625C207.422 490.98 211.075 485.031 214.234 479.8L219.37 482.902C216.197 488.157 212.532 494.125 209.662 498.776C208.226 501.102 206.989 503.1 206.11 504.517C205.671 505.225 205.321 505.788 205.082 506.174C204.962 506.367 204.869 506.516 204.806 506.617C204.775 506.667 204.751 506.705 204.735 506.731C204.727 506.744 204.721 506.754 204.717 506.76C204.715 506.763 204.714 506.766 204.713 506.768C204.712 506.768 204.712 506.769 204.712 506.769C204.711 506.77 204.711 506.77 204.711 506.77C204.711 506.77 204.711 506.77 202.164 505.185ZM189.866 526.062L199.411 503.994L204.918 506.376L195.373 528.444L189.866 526.062ZM191.851 524.323L192.27 524.274L192.969 530.233L192.55 530.282L191.851 524.323ZM184.766 571.95C181.958 570.894 181.958 570.894 181.958 570.895C181.958 570.895 181.958 570.895 181.958 570.895C181.958 570.895 181.958 570.895 181.958 570.895C181.959 570.893 181.959 570.891 181.961 570.888C181.963 570.88 181.968 570.868 181.974 570.851C181.987 570.818 182.006 570.764 182.033 570.691C182.085 570.546 182.164 570.325 182.265 570.032C182.469 569.445 182.762 568.571 183.115 567.444C183.82 565.189 184.762 561.925 185.694 557.923C187.562 549.904 189.373 538.997 189.201 527.347L195.2 527.258C195.382 539.547 193.476 550.964 191.538 559.284C190.567 563.452 189.584 566.861 188.841 569.236C188.469 570.425 188.157 571.356 187.935 571.995C187.824 572.315 187.736 572.562 187.675 572.732C187.644 572.817 187.62 572.882 187.603 572.928C187.595 572.951 187.588 572.969 187.583 572.982C187.581 572.989 187.579 572.994 187.577 572.998C187.577 573 187.576 573.002 187.576 573.003C187.575 573.004 187.575 573.004 187.575 573.005C187.575 573.005 187.574 573.006 184.766 571.95ZM108.543 539.997C108.619 539.809 108.51 539.816 108.653 540.238C108.801 540.676 109.148 541.333 109.821 542.206C111.165 543.951 113.427 546.079 116.49 548.434C122.578 553.116 131.306 558.298 140.587 562.688C149.88 567.083 159.534 570.592 167.466 572.044C171.442 572.772 174.816 572.951 177.426 572.563C180.036 572.176 181.539 571.283 182.343 570.181L187.19 573.718C185.095 576.588 181.821 577.977 178.307 578.498C174.793 579.02 170.697 578.735 166.386 577.946C157.747 576.365 147.568 572.627 138.021 568.112C128.463 563.59 119.344 558.198 112.832 553.19C109.595 550.701 106.869 548.206 105.068 545.868C104.168 544.7 103.404 543.45 102.968 542.157C102.526 540.847 102.361 539.298 102.973 537.768L108.543 539.997ZM129.178 500.159C130.292 502.945 130.295 502.943 130.299 502.942C130.3 502.941 130.303 502.94 130.306 502.939C130.31 502.937 130.315 502.935 130.319 502.934C130.327 502.93 130.335 502.927 130.343 502.924C130.357 502.918 130.369 502.912 130.379 502.908C130.398 502.899 130.407 502.895 130.407 502.895C130.407 502.895 130.367 502.915 130.29 502.961C130.135 503.054 129.829 503.254 129.381 503.62C128.483 504.352 127.022 505.743 125.084 508.25C121.2 513.273 115.469 522.685 108.543 539.997L102.973 537.768C110.029 520.13 116.008 510.18 120.338 504.58C122.507 501.774 124.28 500.038 125.588 498.97C126.244 498.436 126.784 498.068 127.2 497.818C127.408 497.693 127.585 497.597 127.73 497.525C127.802 497.489 127.866 497.459 127.922 497.434C127.95 497.422 127.976 497.41 127.999 497.4C128.011 497.395 128.022 497.391 128.033 497.386C128.039 497.384 128.044 497.382 128.049 497.38C128.052 497.379 128.055 497.377 128.057 497.377C128.06 497.375 128.064 497.374 129.178 500.159ZM127.084 502.344C127.001 502.24 126.917 502.135 126.833 502.03L131.523 498.288C131.599 498.384 131.676 498.48 131.754 498.576L127.084 502.344ZM134.375 491.978L132.348 501.11L126.49 499.81L128.517 490.678L134.375 491.978ZM135.298 477.177C136.324 482.223 135.973 487.452 134.279 492.315L128.613 490.341C129.952 486.497 130.23 482.363 129.418 478.374L135.298 477.177ZM132.005 401.765C131.72 402.435 131.4 403.813 131.144 406.018C130.897 408.145 130.734 410.804 130.651 413.872C130.485 420.003 130.642 427.603 131.031 435.534C131.81 451.439 133.505 468.373 135.298 477.177L129.418 478.374C127.534 469.117 125.822 451.819 125.038 435.828C124.645 427.81 124.482 420.046 124.653 413.71C124.739 410.544 124.909 407.694 125.184 405.326C125.45 403.035 125.841 400.931 126.481 399.421L132.005 401.765ZM136.907 395.197C134.735 396.897 133.051 399.143 132.029 401.705L126.456 399.481C127.872 395.934 130.202 392.826 133.209 390.472L136.907 395.197ZM144.396 392.025C141.663 392.403 139.079 393.497 136.907 395.197L133.209 390.473C136.216 388.118 139.793 386.604 143.576 386.082L144.396 392.025ZM161.431 382.752C161.605 385.747 161.605 385.747 161.606 385.747C161.606 385.747 161.606 385.747 161.606 385.747C161.607 385.747 161.607 385.747 161.607 385.747C161.607 385.747 161.606 385.747 161.604 385.747C161.601 385.748 161.594 385.748 161.585 385.749C161.565 385.75 161.534 385.752 161.49 385.755C161.404 385.761 161.271 385.771 161.097 385.786C160.75 385.816 160.24 385.864 159.614 385.94C158.356 386.091 156.652 386.346 154.847 386.758C153.029 387.174 151.193 387.732 149.634 388.46C148.038 389.205 146.985 390.012 146.432 390.79L141.54 387.317C142.947 385.336 145.054 383.976 147.096 383.023C149.175 382.052 151.455 381.379 153.509 380.909C155.576 380.437 157.498 380.151 158.899 379.982C159.602 379.898 160.18 379.842 160.587 379.808C160.791 379.79 160.953 379.778 161.066 379.77C161.123 379.766 161.168 379.763 161.2 379.761C161.216 379.76 161.229 379.759 161.239 379.759C161.243 379.758 161.247 379.758 161.251 379.758C161.252 379.758 161.254 379.758 161.255 379.758C161.255 379.758 161.256 379.758 161.256 379.758C161.257 379.757 161.258 379.757 161.431 382.752ZM182.893 377.035C182.357 379.986 182.358 379.987 182.359 379.987C182.359 379.987 182.36 379.987 182.36 379.987C182.361 379.987 182.361 379.987 182.362 379.987C182.362 379.987 182.362 379.987 182.36 379.987C182.358 379.987 182.352 379.985 182.342 379.984C182.323 379.981 182.29 379.975 182.244 379.968C182.152 379.953 182.007 379.93 181.816 379.904C181.433 379.851 180.867 379.783 180.163 379.724C178.749 379.606 176.818 379.533 174.729 379.701C170.39 380.049 166.161 381.365 163.853 384.523L159.009 380.982C162.905 375.652 169.408 374.109 174.249 373.72C176.749 373.519 179.021 373.608 180.661 373.745C181.485 373.813 182.159 373.895 182.635 373.96C182.873 373.993 183.063 374.022 183.197 374.044C183.264 374.054 183.317 374.063 183.356 374.07C183.376 374.073 183.392 374.076 183.404 374.078C183.41 374.079 183.415 374.08 183.419 374.081C183.421 374.082 183.423 374.082 183.425 374.082C183.426 374.082 183.427 374.082 183.427 374.083C183.428 374.083 183.429 374.083 182.893 377.035Z" fill="#FF6207" mask="url(#path-83-inside-1_1_363)"/>
<path d="M232.041 326.86C229.267 325.631 226.208 323.913 224.891 321.908L233.381 301.752C233.562 301.317 233.834 300.927 234.179 300.606C234.523 300.284 234.931 300.04 235.377 299.889C235.823 299.737 236.295 299.682 236.764 299.728C237.233 299.773 237.687 299.918 238.095 300.151C241.116 301.895 245.103 305.041 245.258 309.558L239.516 323.845C239.235 324.543 238.815 325.177 238.283 325.709C237.751 326.241 237.117 326.66 236.42 326.941C235.722 327.223 234.975 327.361 234.222 327.347C233.47 327.333 232.728 327.167 232.041 326.86Z" fill="url(#paint40_linear_1_363)" stroke="#FF6207" stroke-width="3" stroke-linecap="round"/>
<path d="M272.044 428.86C272.044 428.86 267.362 422.914 268.968 419.932C270.574 416.95 277.717 412.733 281.846 413.192C283.816 413.489 285.717 414.136 287.457 415.104C287.774 415.269 288.041 415.515 288.234 415.816C288.426 416.117 288.537 416.463 288.554 416.82C288.571 417.176 288.496 417.532 288.334 417.85C288.171 418.169 287.929 418.439 287.63 418.635L272.044 428.86Z" fill="url(#paint41_linear_1_363)" stroke="#FF6207" stroke-width="3" stroke-linecap="round"/>
<defs>
<linearGradient id="paint0_linear_1_363" x1="307.827" y1="81.4208" x2="305.749" y2="249.102" gradientUnits="userSpaceOnUse">
<stop stop-color="#FF6207" stop-opacity="0.71"/>
<stop offset="1" stop-color="#FF6207" stop-opacity="0"/>
</linearGradient>
<linearGradient id="paint1_linear_1_363" x1="253.128" y1="230.481" x2="249.695" y2="377.839" gradientUnits="userSpaceOnUse">
<stop stop-color="#FF6207" stop-opacity="0.7"/>
<stop offset="1" stop-color="#FF6207" stop-opacity="0"/>
</linearGradient>
<linearGradient id="paint2_linear_1_363" x1="252.689" y1="343.662" x2="252.688" y2="344.932" gradientUnits="userSpaceOnUse">
<stop stop-color="#FF6207"/>
<stop offset="1" stop-color="#FF6207" stop-opacity="0"/>
</linearGradient>
<linearGradient id="paint3_linear_1_363" x1="254.575" y1="363.281" x2="254.574" y2="364.551" gradientUnits="userSpaceOnUse">
<stop stop-color="#FF6207"/>
<stop offset="1" stop-color="#FF6207" stop-opacity="0"/>
</linearGradient>
<linearGradient id="paint4_linear_1_363" x1="254.209" y1="353.36" x2="254.208" y2="354.631" gradientUnits="userSpaceOnUse">
<stop stop-color="#FF6207"/>
<stop offset="1" stop-color="#FF6207" stop-opacity="0"/>
</linearGradient>
<linearGradient id="paint5_linear_1_363" x1="356.103" y1="230.481" x2="352.67" y2="377.839" gradientUnits="userSpaceOnUse">
<stop stop-color="#FF6207" stop-opacity="0.65"/>
<stop offset="1" stop-color="#FF6207" stop-opacity="0"/>
</linearGradient>
<linearGradient id="paint6_linear_1_363" x1="355.665" y1="343.662" x2="355.663" y2="344.932" gradientUnits="userSpaceOnUse">
<stop stop-color="#FF6207"/>
<stop offset="1" stop-color="#FF6207" stop-opacity="0"/>
</linearGradient>
<linearGradient id="paint7_linear_1_363" x1="357.551" y1="363.281" x2="357.549" y2="364.551" gradientUnits="userSpaceOnUse">
<stop stop-color="#FF6207"/>
<stop offset="1" stop-color="#FF6207" stop-opacity="0"/>
</linearGradient>
<linearGradient id="paint8_linear_1_363" x1="357.183" y1="353.36" x2="357.182" y2="354.631" gradientUnits="userSpaceOnUse">
<stop stop-color="#FF6207"/>
<stop offset="1" stop-color="#FF6207" stop-opacity="0"/>
</linearGradient>
<linearGradient id="paint9_linear_1_363" x1="317.387" y1="368.256" x2="316.789" y2="453.956" gradientUnits="userSpaceOnUse">
<stop stop-color="#FF6207" stop-opacity="0.64"/>
<stop offset="1" stop-color="#FF6207" stop-opacity="0"/>
</linearGradient>
<linearGradient id="paint10_linear_1_363" x1="393.733" y1="405.441" x2="386.465" y2="438.842" gradientUnits="userSpaceOnUse">
<stop stop-color="#FF6207"/>
<stop offset="1" stop-color="#FF6207" stop-opacity="0"/>
</linearGradient>
<linearGradient id="paint11_linear_1_363" x1="376.531" y1="415.912" x2="371.441" y2="439.311" gradientUnits="userSpaceOnUse">
<stop stop-color="#FF6207"/>
<stop offset="1" stop-color="#FF6207" stop-opacity="0"/>
</linearGradient>
<linearGradient id="paint12_linear_1_363" x1="359.256" y1="424.277" x2="355.904" y2="439.685" gradientUnits="userSpaceOnUse">
<stop stop-color="#FF6207"/>
<stop offset="1" stop-color="#FF6207" stop-opacity="0"/>
</linearGradient>
<linearGradient id="paint13_linear_1_363" x1="340.695" y1="396.354" x2="331.538" y2="438.436" gradientUnits="userSpaceOnUse">
<stop stop-color="#FF6207"/>
<stop offset="1" stop-color="#FF6207" stop-opacity="0"/>
</linearGradient>
<linearGradient id="paint14_linear_1_363" x1="324.113" y1="424.277" x2="320.761" y2="439.685" gradientUnits="userSpaceOnUse">
<stop stop-color="#FF6207"/>
<stop offset="1" stop-color="#FF6207" stop-opacity="0"/>
</linearGradient>
<linearGradient id="paint15_linear_1_363" x1="305.619" y1="398.3" x2="296.868" y2="438.524" gradientUnits="userSpaceOnUse">
<stop stop-color="#FF6207"/>
<stop offset="1" stop-color="#FF6207" stop-opacity="0"/>
</linearGradient>
<linearGradient id="paint16_linear_1_363" x1="288.92" y1="422.923" x2="285.287" y2="439.624" gradientUnits="userSpaceOnUse">
<stop stop-color="#FF6207"/>
<stop offset="1" stop-color="#FF6207" stop-opacity="0"/>
</linearGradient>
<linearGradient id="paint17_linear_1_363" x1="271.638" y1="431.093" x2="269.702" y2="439.989" gradientUnits="userSpaceOnUse">
<stop stop-color="#FF6207"/>
<stop offset="1" stop-color="#FF6207" stop-opacity="0"/>
</linearGradient>
<linearGradient id="paint18_linear_1_363" x1="253.157" y1="405.441" x2="245.889" y2="438.842" gradientUnits="userSpaceOnUse">
<stop stop-color="#FF6207"/>
<stop offset="1" stop-color="#FF6207" stop-opacity="0"/>
</linearGradient>
<linearGradient id="paint19_linear_1_363" x1="235.112" y1="392.127" x2="225.077" y2="438.247" gradientUnits="userSpaceOnUse">
<stop stop-color="#FF6207"/>
<stop offset="1" stop-color="#FF6207" stop-opacity="0"/>
</linearGradient>
<linearGradient id="paint20_linear_1_363" x1="364.594" y1="139.992" x2="364.594" y2="140.031" gradientUnits="userSpaceOnUse">
<stop stop-color="#FF6207"/>
<stop offset="1" stop-color="#FF6207" stop-opacity="0"/>
</linearGradient>
<linearGradient id="paint21_linear_1_363" x1="348.536" y1="156.05" x2="348.536" y2="156.132" gradientUnits="userSpaceOnUse">
<stop stop-color="#FF6207"/>
<stop offset="1" stop-color="#FF6207" stop-opacity="0"/>
</linearGradient>
<linearGradient id="paint22_linear_1_363" x1="89.428" y1="-57.5469" x2="82.2287" y2="213.516" gradientUnits="userSpaceOnUse">
<stop stop-color="#FF6207" stop-opacity="0.53"/>
<stop offset="1" stop-color="#FF6207" stop-opacity="0"/>
</linearGradient>
<linearGradient id="paint23_linear_1_363" x1="83.797" y1="1.07319" x2="81.3985" y2="116.201" gradientUnits="userSpaceOnUse">
<stop stop-color="#FF6207"/>
<stop offset="1" stop-color="#FF6207" stop-opacity="0"/>
</linearGradient>
<linearGradient id="paint24_linear_1_363" x1="60.1907" y1="64.8898" x2="59.6794" y2="99.6146" gradientUnits="userSpaceOnUse">
<stop stop-color="#FF6207"/>
<stop offset="1" stop-color="#FF6207" stop-opacity="0"/>
</linearGradient>
<linearGradient id="paint25_linear_1_363" x1="58.4069" y1="-0.528887" x2="55.252" y2="94.8523" gradientUnits="userSpaceOnUse">
<stop stop-color="#FF6207"/>
<stop offset="1" stop-color="#FF6207" stop-opacity="0"/>
</linearGradient>
<linearGradient id="paint26_linear_1_363" x1="116.887" y1="149.238" x2="116.886" y2="150.508" gradientUnits="userSpaceOnUse">
<stop stop-color="#FF6207"/>
<stop offset="1" stop-color="#FF6207" stop-opacity="0"/>
</linearGradient>
<linearGradient id="paint27_linear_1_363" x1="120.508" y1="190.148" x2="120.507" y2="191.418" gradientUnits="userSpaceOnUse">
<stop stop-color="#FF6207"/>
<stop offset="1" stop-color="#FF6207" stop-opacity="0"/>
</linearGradient>
<linearGradient id="paint28_linear_1_363" x1="93.9656" y1="169.462" x2="93.9653" y2="170.732" gradientUnits="userSpaceOnUse">
<stop stop-color="#FF6207"/>
<stop offset="1" stop-color="#FF6207" stop-opacity="0"/>
</linearGradient>
<linearGradient id="paint29_linear_1_363" x1="240.476" y1="360.025" x2="240.399" y2="365.294" gradientUnits="userSpaceOnUse">
<stop stop-color="#FF6207"/>
<stop offset="1" stop-color="#FF6207" stop-opacity="0"/>
</linearGradient>
<linearGradient id="paint30_linear_1_363" x1="200.555" y1="365.822" x2="199.544" y2="387.765" gradientUnits="userSpaceOnUse">
<stop stop-color="#FF6207"/>
<stop offset="1" stop-color="#FF6207" stop-opacity="0"/>
</linearGradient>
<linearGradient id="paint31_linear_1_363" x1="182.266" y1="370.875" x2="180.622" y2="395.56" gradientUnits="userSpaceOnUse">
<stop stop-color="#FF6207"/>
<stop offset="1" stop-color="#FF6207" stop-opacity="0"/>
</linearGradient>
<linearGradient id="paint32_linear_1_363" x1="161.61" y1="377.444" x2="159.982" y2="397.954" gradientUnits="userSpaceOnUse">
<stop stop-color="#FF6207"/>
<stop offset="1" stop-color="#FF6207" stop-opacity="0"/>
</linearGradient>
<linearGradient id="paint33_linear_1_363" x1="145.11" y1="385.08" x2="143.081" y2="400.168" gradientUnits="userSpaceOnUse">
<stop stop-color="#FF6207"/>
<stop offset="1" stop-color="#FF6207" stop-opacity="0"/>
</linearGradient>
<linearGradient id="paint34_linear_1_363" x1="493.114" y1="432.946" x2="492.153" y2="518.034" gradientUnits="userSpaceOnUse">
<stop stop-color="#FF6207"/>
<stop offset="1" stop-color="#FF6207" stop-opacity="0"/>
</linearGradient>
<linearGradient id="paint35_linear_1_363" x1="492.38" y1="465.925" x2="492.38" y2="467.195" gradientUnits="userSpaceOnUse">
<stop stop-color="#FF6207"/>
<stop offset="1" stop-color="#FF6207" stop-opacity="0"/>
</linearGradient>
<linearGradient id="paint36_linear_1_363" x1="504.955" y1="465.925" x2="504.954" y2="467.195" gradientUnits="userSpaceOnUse">
<stop stop-color="#FF6207"/>
<stop offset="1" stop-color="#FF6207" stop-opacity="0"/>
</linearGradient>
<linearGradient id="paint37_linear_1_363" x1="493.696" y1="484.469" x2="493.696" y2="485.739" gradientUnits="userSpaceOnUse">
<stop stop-color="#FF6207"/>
<stop offset="1" stop-color="#FF6207" stop-opacity="0"/>
</linearGradient>
<linearGradient id="paint38_linear_1_363" x1="496.575" y1="503.013" x2="496.575" y2="504.283" gradientUnits="userSpaceOnUse">
<stop stop-color="#FF6207"/>
<stop offset="1" stop-color="#FF6207" stop-opacity="0"/>
</linearGradient>
<linearGradient id="paint39_linear_1_363" x1="204.267" y1="224.424" x2="193.315" y2="575.605" gradientUnits="userSpaceOnUse">
<stop stop-color="#FF6207" stop-opacity="0.42"/>
<stop offset="1" stop-color="#FF6207" stop-opacity="0.62"/>
</linearGradient>
<linearGradient id="paint40_linear_1_363" x1="235.721" y1="292.266" x2="234.726" y2="327.338" gradientUnits="userSpaceOnUse">
<stop stop-color="#FF6207" stop-opacity="0.42"/>
<stop offset="1" stop-color="#FF6207" stop-opacity="0.62"/>
</linearGradient>
<linearGradient id="paint41_linear_1_363" x1="279.227" y1="408.926" x2="278.899" y2="428.865" gradientUnits="userSpaceOnUse">
<stop stop-color="#FF6207" stop-opacity="0.42"/>
<stop offset="1" stop-color="#FF6207" stop-opacity="0.62"/>
</linearGradient>
</defs>
</svg>
